<?xml version="1.0" encoding="UTF-8"?>
<svg data-name="Camada 1" viewBox="0 0 896.87 268.48" xmlns="http://www.w3.org/2000/svg">
<defs>
<style>.cls-1{fill:none;}.cls-2{fill:#1b2c3b;}.cls-3{opacity:0.1;}.cls-4{clip-path:url(#w);}.cls-5{fill:#051679;}.cls-6{fill:#06177a;}.cls-7{fill:#06177b;}.cls-8{fill:#07187c;}.cls-9{fill:#051678;}.cls-10{fill:#07187d;}.cls-11{clip-path:url(#l);}.cls-12{fill:#081a80;}.cls-13{fill:#091a81;}.cls-14{fill:#091b82;}.cls-15{fill:#0a1b83;}.cls-16{fill:#0a1c84;}.cls-17{fill:#08197e;}.cls-18{fill:#08197f;}.cls-19{fill:#0b1c85;}.cls-20{clip-path:url(#g);}.cls-21{fill:#0b1d86;}.cls-22{fill:#0b1d87;}.cls-23{fill:#0c1d88;}.cls-24{fill:#0c1e89;}.cls-25{fill:#0d1e8a;}.cls-26{fill:#0d1f8b;}.cls-27{fill:#0e1f8c;}.cls-28{fill:#0e208d;}.cls-29{clip-path:url(#f);}.cls-30{fill:#0f218f;}.cls-31{fill:#0f2190;}.cls-32{fill:#102291;}.cls-33{fill:#102292;}.cls-34{fill:#112393;}.cls-35{fill:#0e208e;}.cls-36{fill:#112394;}.cls-37{clip-path:url(#e);}.cls-38{fill:#122496;}.cls-39{fill:#122497;}.cls-40{fill:#132598;}.cls-41{fill:#132599;}.cls-42{clip-path:url(#d);}.cls-43{fill:#14269a;}.cls-44{fill:#14269b;}.cls-45{fill:#14279c;}.cls-46{fill:#15279d;}.cls-47{fill:#15289e;}.cls-48{clip-path:url(#c);}.cls-49{fill:#16289f;}.cls-50{fill:#1629a0;}.cls-51{fill:#1729a1;}.cls-52{clip-path:url(#b);}.cls-53{fill:#172aa2;}.cls-54{fill:#172aa3;}.cls-55{fill:#182aa4;}.cls-56{fill:#182ba5;}.cls-57{fill:#192ba6;}.cls-58{fill:#192ca7;}.cls-59{clip-path:url(#a);}.cls-60{fill:#1a2ca8;}.cls-61{fill:#1a2da9;}.cls-62{fill:#1a2daa;}.cls-63{clip-path:url(#v);}.cls-64{fill:#1b2eab;}.cls-65{fill:#1b2eac;}.cls-66{fill:#1c2fad;}.cls-67{fill:#1c2fae;}.cls-68{fill:#1d30af;}.cls-69{fill:#1d30b0;}.cls-70{fill:#1d31b1;}.cls-71{clip-path:url(#u);}.cls-72{fill:#1f32b4;}.cls-73{fill:#1f32b5;}.cls-74{fill:#2033b6;}.cls-75{fill:#2033b7;}.cls-76{fill:#2034b8;}.cls-77{fill:#1e31b2;}.cls-78{fill:#1e31b3;}.cls-79{fill:#2134b9;}.cls-80{fill:#2135bb;}.cls-81{clip-path:url(#t);}.cls-82{fill:#2337c0;}.cls-83{fill:#2438c1;}.cls-84{fill:#2438c2;}.cls-85{fill:#2538c3;}.cls-86{fill:#2539c4;}.cls-87{fill:#2337bf;}.cls-88{fill:#2539c5;}.cls-89{fill:#263ac6;}.cls-90{clip-path:url(#s);}.cls-91{fill:#273bc8;}.cls-92{fill:#273bc9;}.cls-93{fill:#283cca;}.cls-94{fill:#283ccb;}.cls-95{fill:#283dcc;}.cls-96{fill:#293dcd;}.cls-97{fill:#263ac7;}.cls-98{fill:#293ece;}.cls-99{clip-path:url(#r);}.cls-100{fill:#2a3ecf;}.cls-101{fill:#2a3fd0;}.cls-102{fill:#2b3fd1;}.cls-103{fill:#2b3fd2;}.cls-104{fill:#2b40d3;}.cls-105{fill:#2c40d4;}.cls-106{fill:#2c41d5;}.cls-107{clip-path:url(#q);}.cls-108{fill:#2e42d8;}.cls-109{fill:#2e43d9;}.cls-110{fill:#2e43da;}.cls-111{fill:#2f44db;}.cls-112{fill:#2f44dc;}.cls-113{fill:#2d41d6;}.cls-114{fill:#2d42d7;}.cls-115{fill:#3045dd;}.cls-116{clip-path:url(#p);}.cls-117{fill:#3146e1;}.cls-118{fill:#3247e2;}.cls-119{fill:#3247e3;}.cls-120{fill:#3348e4;}.cls-121{fill:#3348e5;}.cls-122{clip-path:url(#o);}.cls-123{fill:#3449e6;}.cls-124{fill:#3449e7;}.cls-125{fill:#344ae8;}.cls-126{clip-path:url(#n);}.cls-127{fill:#354bea;}.cls-128{fill:#364beb;}.cls-129{fill:#364cec;}.cls-130{fill:#374ced;}.cls-131{fill:#374cee;}.cls-132{fill:#354ae9;}.cls-133{fill:#374def;}.cls-134{fill:#384df0;}.cls-135{clip-path:url(#m);}.cls-136{fill:#384ef1;}.cls-137{fill:#394ef2;}.cls-138{fill:#394ff3;}.cls-139{fill:#3a4ff4;}.cls-140{fill:#3a50f5;}.cls-141{fill:#3a50f6;}.cls-142{fill:#3b51f7;}.cls-143{clip-path:url(#k);}.cls-144{fill:#3b51f8;}.cls-145{fill:#3c52f9;}.cls-146{fill:#3c52fa;}.cls-147{fill:#3d53fb;}.cls-148{fill:#3d53fc;}.cls-149{fill:#0033b1;}.cls-150{clip-path:url(#j);}.cls-151{fill:#051779;}.cls-152{fill:#05177a;}.cls-153{fill:#05187b;}.cls-154{fill:#05187c;}.cls-155{fill:#05197d;}.cls-156{fill:#04197e;}.cls-157{fill:#041a7f;}.cls-158{fill:#041a80;}.cls-159{fill:#041b81;}.cls-160{fill:#041b82;}.cls-161{fill:#041c83;}.cls-162{fill:#041c84;}.cls-163{fill:#041d85;}.cls-164{fill:#041d86;}.cls-165{fill:#041e87;}.cls-166{fill:#041e88;}.cls-167{fill:#031f89;}.cls-168{fill:#031f8a;}.cls-169{fill:#03208b;}.cls-170{fill:#03208c;}.cls-171{fill:#03218d;}.cls-172{fill:#03218e;}.cls-173{fill:#03228f;}.cls-174{fill:#032290;}.cls-175{fill:#032391;}.cls-176{fill:#032392;}.cls-177{fill:#032493;}.cls-178{fill:#022595;}.cls-179{fill:#022596;}.cls-180{fill:#022697;}.cls-181{fill:#022698;}.cls-182{fill:#022799;}.cls-183{fill:#02279a;}.cls-184{fill:#02289b;}.cls-185{fill:#02289c;}.cls-186{fill:#02299d;}.cls-187{fill:#02299e;}.cls-188{fill:#022a9f;}.cls-189{fill:#022aa0;}.cls-190{fill:#012ba1;}.cls-191{fill:#012ba2;}.cls-192{fill:#012ca3;}.cls-193{fill:#012ca4;}.cls-194{fill:#012da5;}.cls-195{fill:#012da6;}.cls-196{fill:#012ea7;}.cls-197{fill:#012ea8;}.cls-198{fill:#012fa9;}.cls-199{fill:#012faa;}.cls-200{fill:#0130ab;}.cls-201{clip-path:url(#i);}.cls-202{fill:#0b39be;}.cls-203{fill:#0c39bf;}.cls-204{fill:#0c39c0;}.cls-205{fill:#0d3ac1;}.cls-206{fill:#0e3ac2;}.cls-207{fill:#0f3bc3;}.cls-208{fill:#103bc4;}.cls-209{fill:#103cc5;}.cls-210{fill:#113cc6;}.cls-211{fill:#123dc7;}.cls-212{fill:#133dc8;}.cls-213{fill:#143dc9;}.cls-214{fill:#153eca;}.cls-215{fill:#153ecb;}.cls-216{fill:#163fcc;}.cls-217{fill:#173fcd;}.cls-218{fill:#1840ce;}.cls-219{fill:#1940cf;}.cls-220{fill:#1a40d0;}.cls-221{fill:#1a41d1;}.cls-222{fill:#1b41d2;}.cls-223{fill:#1c42d3;}.cls-224{fill:#1d42d4;}.cls-225{fill:#1e43d5;}.cls-226{fill:#1f43d7;}.cls-227{fill:#1f43d8;}.cls-228{fill:#2044d9;}.cls-229{fill:#2144da;}.cls-230{fill:#2245db;}.cls-231{fill:#2345dc;}.cls-232{fill:#2346dd;}.cls-233{fill:#2446de;}.cls-234{fill:#2546df;}.cls-235{fill:#2647e0;}.cls-236{fill:#2747e1;}.cls-237{fill:#2848e2;}.cls-238{fill:#2848e3;}.cls-239{fill:#2949e4;}.cls-240{fill:#2a49e5;}.cls-241{fill:#2b49e6;}.cls-242{fill:#2c4ae7;}.cls-243{fill:#2d4ae8;}.cls-244{fill:#2d4be9;}.cls-245{fill:#2e4bea;}.cls-246{fill:#2f4ceb;}.cls-247{fill:#0030ac;}.cls-248{fill:#0031ad;}.cls-249{fill:#0031ae;}.cls-250{fill:#0032af;}.cls-251{fill:#0032b0;}.cls-252{fill:#0133b2;}.cls-253{fill:#0234b3;}.cls-254{fill:#0234b4;}.cls-255{fill:#0335b5;}.cls-256{fill:#0435b6;}.cls-257{fill:#0536b7;}.cls-258{fill:#0636b8;}.cls-259{fill:#0736b9;}.cls-260{fill:#0737ba;}.cls-261{fill:#0837bb;}.cls-262{fill:#0938bc;}.cls-263{fill:#0a38bd;}.cls-264{fill:#304cec;}.cls-265{fill:#314ded;}.cls-266{fill:#314dee;}.cls-267{fill:#324def;}.cls-268{fill:#334ef0;}.cls-269{fill:#344ef1;}.cls-270{fill:#354ff2;}.cls-271{fill:#364ff3;}.cls-272{fill:#3650f4;}.cls-273{fill:#3750f5;}.cls-274{fill:#3850f6;}.cls-275{fill:#3951f7;}.cls-276{fill:#3a51f8;}.cls-277{fill:#3b52f9;}.cls-278{fill:#3b52fa;}.cls-279{fill:#3c53fb;}.cls-280{clip-path:url(#h);}</style>
<clipPath id="w" transform="translate(-477.36 -406.76)">
<path class="cls-1" d="m1024.8 623.36a4.7 4.7 0 0 0 -4.54 2.9l-3.1-1.78c1.43-3.1 4-4.64 7.75-4.64 3.41 0 5.7 1.23 6.83 3.72a8 8 0 0 1 0.61 3.28v11.61h-4v-2.45a5.79 5.79 0 0 1 -5.36 2.8 6.57 6.57 0 0 1 -4.41 -1.51 4.83 4.83 0 0 1 -1.74 -3.85v-0.21c0-4.23 4.37-5.57 7.58-5.57h2.25c1.13 0 1.71-0.51 1.71-1.53 0.01-1.55-1.29-2.77-3.58-2.77zm3.56 7.13h-3.93a4.67 4.67 0 0 0 -2.42 0.69 2.07 2.07 0 0 0 -1.1 1.84c0 1.5 1.16 2.49 2.9 2.49a4.19 4.19 0 0 0 4.55 -4.44z"/>
</clipPath>
<clipPath id="l" transform="translate(-477.36 -406.76)">
<path class="cls-1" d="M1037.81,622.74a8.37,8.37,0,0,1,6.59-2.87,8,8,0,0,1,3.21.75,5.47,5.47,0,0,1,2.7,2.19V610.65h4.06v27.8h-4v-2.83a5.73,5.73,0,0,1-2.84,2.35,8.66,8.66,0,0,1-3.28.75,8.28,8.28,0,0,1-6.41-2.8,9.83,9.83,0,0,1-.07-13.18Zm3.14,2.46a6.35,6.35,0,0,0,0,8.2,5.19,5.19,0,0,0,4,1.63,5.09,5.09,0,0,0,3.93-1.63,6.26,6.26,0,0,0,0-8.2,5.49,5.49,0,0,0-7.89,0Z"/>
</clipPath>
<clipPath id="g" transform="translate(-477.36 -406.76)">
<path class="cls-1" d="m1061.1 620.21l5.36 13.49 5.37-13.49h4.26l-7.61 18.24h-4.06l-7.72-18.24z"/>
</clipPath>
<clipPath id="f" transform="translate(-477.36 -406.76)">
<path class="cls-1" d="M1080.67,630.53a4.5,4.5,0,0,0,1.63,3.41,5.56,5.56,0,0,0,3.69,1.33,5.14,5.14,0,0,0,4.92-2.83l2.94,1.95a8.66,8.66,0,0,1-7.79,4.4,9.37,9.37,0,0,1-6.83-2.7,9.25,9.25,0,0,1-2.73-6.79,9.42,9.42,0,0,1,2.63-6.7,8.65,8.65,0,0,1,6.55-2.76,8.35,8.35,0,0,1,6.53,2.59,9.77,9.77,0,0,1,2.35,6.83c0,.55,0,1-.06,1.27Zm.2-3.08h9.56c-.14-2.56-2.15-4.13-4.75-4.13A4.72,4.72,0,0,0,1080.87,627.45Z"/>
</clipPath>
<clipPath id="e" transform="translate(-477.36 -406.76)">
<path class="cls-1" d="M1107.68,624.31a5.76,5.76,0,0,0-1.16-.1c-3.11,0-4.75,1.81-4.75,5v9.26h-4.06V620.21h4v2.91a5.41,5.41,0,0,1,5-3.08,3.55,3.55,0,0,1,1,.11Z"/>
</clipPath>
<clipPath id="d" transform="translate(-477.36 -406.76)">
<path class="cls-1" d="M1115.57,623.87v8.06c0,2.18,1,3,3.14,3a5.85,5.85,0,0,0,1.29-.14v3.45a6.27,6.27,0,0,1-2.18.37c-4,0-6.32-2.11-6.32-6.07v-8.71h-3.34v-3.66h3.34v-5.63h4.07v5.63H1120v3.66Z"/>
</clipPath>
<clipPath id="c" transform="translate(-477.36 -406.76)">
<path class="cls-1" d="m1123.4 612.43a2.55 2.55 0 0 1 3.76 0 2.66 2.66 0 1 1 -3.76 0zm3.93 26h-4.07v-18.22h4.07z"/>
</clipPath>
<clipPath id="b" transform="translate(-477.36 -406.76)">
<path class="cls-1" d="M1130.11,634.18l3.18-1.77a4.7,4.7,0,0,0,4.37,2.93c1.54,0,2.87-.78,2.87-2,0-1.06-1.26-1.88-3.76-2.39a8.36,8.36,0,0,1-4.54-2.19,4.71,4.71,0,0,1-1.3-3.31,4.91,4.91,0,0,1,2-4,7.23,7.23,0,0,1,4.65-1.57c3.28,0,5.56,1.36,6.83,4.1l-3.14,1.77a4,4,0,0,0-3.83-2.46c-1.26,0-2.56.79-2.56,1.78,0,1.19,1,1.81,3.38,2.32,4.13.92,6.32,2.9,6.32,5.74a5.13,5.13,0,0,1-1.91,4.1,7.59,7.59,0,0,1-5,1.57C1134,638.76,1131.51,637.22,1130.11,634.18Z"/>
</clipPath>
<clipPath id="a" transform="translate(-477.36 -406.76)">
<path class="cls-1" d="M1148,612.43a2.54,2.54,0,0,1,3.75,0,2.65,2.65,0,1,1-3.75,0Zm3.93,26h-4.07V620.21h4.07Z"/>
</clipPath>
<clipPath id="v" transform="translate(-477.36 -406.76)">
<path class="cls-1" d="m1168.6 638.45v-10.21c0-2.73-1.33-4.54-4-4.54s-4.2 1.84-4.2 4.61v10.14h-4.07v-18.24h4v2.46a6.61 6.61 0 0 1 5.57 -2.83c4.47 0 6.83 3 6.83 7.37v11.24z"/>
</clipPath>
<clipPath id="u" transform="translate(-477.36 -406.76)">
<path class="cls-1" d="M1178.16,635.82a9.42,9.42,0,0,1-2.49-6.56,9.71,9.71,0,0,1,2.46-6.49,8.3,8.3,0,0,1,6.56-2.86,8,8,0,0,1,3.21.78,6,6,0,0,1,2.73,2.29v-2.77h4v18A9.05,9.05,0,0,1,1192,645a9.55,9.55,0,0,1-6.9,2.53c-4.44,0-7.51-1.85-9.18-5.53l3.38-1.95c1.26,2.56,3.17,3.86,5.73,3.86a5.16,5.16,0,0,0,5.54-5.57v-2.87a5.81,5.81,0,0,1-2.77,2.32,8.08,8.08,0,0,1-3.21.76A8.31,8.31,0,0,1,1178.16,635.82Zm10.93-10.65a5.52,5.52,0,0,0-7.85,0,5.69,5.69,0,0,0-1.51,4,6,6,0,0,0,1.51,4.1,5.09,5.09,0,0,0,3.92,1.64,5,5,0,0,0,3.9-1.64,5.87,5.87,0,0,0,1.53-4.1A5.75,5.75,0,0,0,1189.09,625.17Z"/>
</clipPath>
<clipPath id="t" transform="translate(-477.36 -406.76)">
<path class="cls-1" d="M1208.25,622.74a8.37,8.37,0,0,1,6.59-2.87,8,8,0,0,1,3.21.75,5.47,5.47,0,0,1,2.7,2.19V610.65h4.06v27.8h-4v-2.83A5.73,5.73,0,0,1,1218,638a8.61,8.61,0,0,1-3.27.75,8.3,8.3,0,0,1-6.42-2.8,9.54,9.54,0,0,1-2.56-6.62A9.67,9.67,0,0,1,1208.25,622.74Zm3.14,2.46a6.35,6.35,0,0,0,0,8.2,5.22,5.22,0,0,0,4,1.63,5.08,5.08,0,0,0,3.93-1.63,6.23,6.23,0,0,0,0-8.2,5,5,0,0,0-3.93-1.67A5.11,5.11,0,0,0,1211.39,625.2Z"/>
</clipPath>
<clipPath id="s" transform="translate(-477.36 -406.76)">
<path class="cls-1" d="M1244.41,622.54a8.89,8.89,0,0,1,2.8,6.69,9.09,9.09,0,0,1-2.8,6.79,9.31,9.31,0,0,1-6.79,2.74,9.51,9.51,0,0,1-6.83-2.74,9.44,9.44,0,0,1,0-13.45,9.52,9.52,0,0,1,6.83-2.73A9.37,9.37,0,0,1,1244.41,622.54Zm-12.26,6.69a6,6,0,0,0,1.54,4.13,5.15,5.15,0,0,0,4,1.71,5,5,0,0,0,3.93-1.67,6,6,0,0,0,1.5-4.1,5.85,5.85,0,0,0-1.54-4.1,5,5,0,0,0-3.92-1.67,5.08,5.08,0,0,0-4,1.67A5.77,5.77,0,0,0,1232.15,629.23Z"/>
</clipPath>
<clipPath id="r" transform="translate(-477.36 -406.76)">
<path class="cls-1" d="m1262.7 638.45v-10.21c0-2.73-1.33-4.54-4-4.54s-4.2 1.84-4.2 4.61v10.14h-4.07v-18.24h4v2.46a6.59 6.59 0 0 1 5.56 -2.83c4.48 0 6.83 3 6.83 7.37v11.24z"/>
</clipPath>
<clipPath id="q" transform="translate(-477.36 -406.76)">
<path class="cls-1" d="M1274,630.53a4.51,4.51,0,0,0,1.64,3.41,5.56,5.56,0,0,0,3.69,1.33,5.14,5.14,0,0,0,4.92-2.83l2.94,1.95a8.66,8.66,0,0,1-7.79,4.4,9.37,9.37,0,0,1-6.83-2.7,9.25,9.25,0,0,1-2.73-6.79,9.42,9.42,0,0,1,2.63-6.7,8.63,8.63,0,0,1,6.55-2.76,8.35,8.35,0,0,1,6.53,2.59,9.77,9.77,0,0,1,2.35,6.83,10,10,0,0,1-.07,1.27Zm.21-3.08h9.56c-.14-2.56-2.15-4.13-4.75-4.13A4.71,4.71,0,0,0,1274.16,627.45Z"/>
</clipPath>
<clipPath id="p" transform="translate(-477.36 -406.76)">
<path class="cls-1" d="M1309,624.31a5.8,5.8,0,0,0-1.17-.1c-3.1,0-4.74,1.81-4.74,5v9.26H1299V620.21h4v2.91a5.41,5.41,0,0,1,5-3.08,3.55,3.55,0,0,1,1,.11Z"/>
</clipPath>
<clipPath id="o" transform="translate(-477.36 -406.76)">
<path class="cls-1" d="m1311.5 612.43a2.54 2.54 0 0 1 3.75 0 2.65 2.65 0 1 1 -3.75 0zm3.93 26h-4.07v-18.22h4.07z"/>
</clipPath>
<clipPath id="n" transform="translate(-477.36 -406.76)">
<path class="cls-1" d="M1321.08,635.82a9.42,9.42,0,0,1-2.49-6.56,9.71,9.71,0,0,1,2.46-6.49,8.29,8.29,0,0,1,6.55-2.86,8,8,0,0,1,3.21.78,6,6,0,0,1,2.73,2.29v-2.77h4v18a9.05,9.05,0,0,1-2.63,6.83,9.56,9.56,0,0,1-6.9,2.53q-6.66,0-9.19-5.53l3.38-1.95c1.27,2.56,3.18,3.86,5.74,3.86,3.18,0,5.53-1.91,5.53-5.57v-2.87a5.78,5.78,0,0,1-2.76,2.32,8.12,8.12,0,0,1-3.21.76A8.3,8.3,0,0,1,1321.08,635.82ZM1332,625.17a5.53,5.53,0,0,0-7.86,0,5.69,5.69,0,0,0-1.5,4,6,6,0,0,0,1.5,4.1,5.13,5.13,0,0,0,3.93,1.64,5,5,0,0,0,3.89-1.64,5.84,5.84,0,0,0,1.54-4.1A5.75,5.75,0,0,0,1332,625.17Z"/>
</clipPath>
<clipPath id="m" transform="translate(-477.36 -406.76)">
<path class="cls-1" d="m1354.2 638.45v-10.21c0-2.73-1.33-4.54-4-4.54s-4.2 1.84-4.2 4.61v10.14h-4.04v-27.8h4v11.89a6.6 6.6 0 0 1 5.46 -2.7c4.48 0 6.83 3 6.83 7.37v11.24z"/>
</clipPath>
<clipPath id="k" transform="translate(-477.36 -406.76)">
<path class="cls-1" d="M1368,623.87v8.06c0,2.18,1.06,3,3.14,3a5.94,5.94,0,0,0,1.3-.14v3.45a6.37,6.37,0,0,1-2.19.37c-4,0-6.31-2.11-6.31-6.07v-8.71h-3.35v-3.66h3.35v-5.63H1368v5.63h4.47v3.66Z"/>
</clipPath>
<clipPath id="j" transform="translate(-477.36 -406.76)">
<path class="cls-1" d="m1100.1 591.7l44.35-116.14h28.93l44.49 116.14h-24.77l-8.75-23.44h-51.47l-8.6 23.44zm41.09-45.7h35l-17.5-47.17z"/>
</clipPath>
<clipPath id="i" transform="translate(-477.36 -406.76)">
<path class="cls-1" d="m1278.1 581.61h-0.3c-5.19 7.72-13.5 11.57-24.62 11.57s-20.18-4-27.15-12.16a43.56 43.56 0 0 1 -10.53 -29.02 41.83 41.83 0 0 1 10.83 -28.33c7.27-8.46 16.32-12.61 27.14-12.61 9.94 0 17.8 3.56 23.74 10.53h0.29v-50.59h23v120.7h-22.39zm-19.58-49.69c-11.13 0-19.58 8.31-19.58 20a20.39 20.39 0 0 0 5.63 14.68 20.06 20.06 0 0 0 27.89 0 20.36 20.36 0 0 0 5.64 -14.68c0-11.69-8.46-20-19.58-20z"/>
</clipPath>
<clipPath id="h" transform="translate(-477.36 -406.76)">
<path class="cls-1" d="m1342.6 593.48c-16.61 0-28.18-6.08-34.56-18.24l17.05-10.09c3.27 6.38 9.2 9.64 17.8 9.64 5.79 0 9.65-2.67 9.65-5.78s-2.53-5.49-12.61-7.72c-18.84-4.15-28.18-12.75-28.18-25.66a21.78 21.78 0 0 1 8.9 -18 33.86 33.86 0 0 1 21.5 -7.12c14.69 0 25.37 6.38 30.56 16l-16.75 10.01c-3-5-7.72-7.56-14.39-7.56-4.75 0-8.31 2.67-8.31 5.78 0 3.41 3.42 5.79 10.39 7.27 20 4.15 30.55 12 30.55 25.81-0.01 15.28-12.02 25.66-31.6 25.66z"/>
</clipPath>
</defs>
<path class="cls-2" transform="translate(-477.36 -406.76)" d="m671.42 563.88 10.58-5.48c5.94 14.38 14.69 22.39 29.67 22.39 7 0 12.9-1.92 17.65-5.63a17.39 17.39 0 0 0 7.27 -14.54c0-11.87-9.2-18.84-27-23.14-23.73-5.78-34.71-16-34.71-32.19 0-9.64 3.56-17.2 10.68-23s15.73-8.75 25.81-8.75c18.39 0 31.15 9.49 36.64 24.18l-10.38 5.78c-4.95-12.3-13.85-18.5-26.63-18.5a26.57 26.57 0 0 0 -16.91 5.49 17.3 17.3 0 0 0 -7.09 14.21c0 10.53 7.12 16.17 24.77 20.77 13.64 3.41 23.43 8.3 29.22 14.68q8 8.69 8 19.58c0 8.9-3.41 16.61-10.24 23s-15.87 9.49-27.14 9.49c-19.72-0.01-33.07-9.5-40.19-28.34z"/>
<path class="cls-2" transform="translate(-477.36 -406.76)" d="M765,474.74a8.68,8.68,0,1,1-8.61,8.75A8.67,8.67,0,0,1,765,474.74ZM771,591H759.23V511.82H771Z"/>
<path class="cls-2" transform="translate(-477.36 -406.76)" d="M839.92,591V544.6c0-13.79-6.82-23.73-20.47-23.73a19.71,19.71,0,0,0-16,7.42,27,27,0,0,0-5.93,17.65V591H785.93V511.82h11.42v13.79c6.68-10.23,14.24-15.27,25.51-15.27,12,0,20.47,5.34,25.37,15.87,6.82-10.53,16.17-15.72,27.88-15.72,18.55,0,29.23,12.6,29.23,31.59V591H893.77V544.9c0-14.24-6.68-23.88-20.47-23.88q-10,0-16,7.12c-4,4.59-5.94,10.38-5.94,17.35V591Z"/>
<path class="cls-2" transform="translate(-477.36 -406.76)" d="m988.25 580.05c-7 8.16-15.87 12.16-26.7 12.16-12.9 0-23.14-5.78-30.56-17.5v55.29h-11.57v-118.18h11.43v17.18c7.86-12.31 18.09-18.54 30.7-18.54a33.61 33.61 0 0 1 26.7 12.31 44.17 44.17 0 0 1 0 57.25zm-8.9-6.67q7.56-8.68 7.57-21.81 0-12.9-7.57-21.8c-5-6.08-11.72-9-20.17-9-8 0-14.69 3.11-20.18 9.2a30.46 30.46 0 0 0 -8.15 21.21 31.93 31.93 0 0 0 8 21.8 25.87 25.87 0 0 0 20.33 9.02c8.45 0 15.28-2.84 20.17-8.62z"/>
<path class="cls-2" transform="translate(-477.36 -406.76)" d="m1019.8 591h-11.72v-120.86h11.72z"/>
<path class="cls-2" transform="translate(-477.36 -406.76)" d="M1040.75,555a28.61,28.61,0,0,0,8.76,19.44,27,27,0,0,0,19.58,7.71,27.63,27.63,0,0,0,25.06-15.87l8.61,5.63a36.93,36.93,0,0,1-33.53,20.47,38.48,38.48,0,0,1-28.62-11.86A40.62,40.62,0,0,1,1029,551.28a41.15,41.15,0,0,1,11.12-28.63,35.62,35.62,0,0,1,27.44-12.16c11.87,0,21.07,3.85,27.59,11.42s9.79,17.2,9.79,29.22a25,25,0,0,1-.15,3.85Zm52.51-9.79c-1.63-14.83-10.82-24.62-25.66-24.62a24.56,24.56,0,0,0-17.65,7.27,29.19,29.19,0,0,0-9,17.35Z"/>
<g class="cls-3">
<path transform="translate(-477.36 -406.76)" d="m617.21 404.75"/>
</g>
<g class="cls-4">
<rect class="cls-5" x="543.54" y="223.73" width="1.32" height="5.02"/>
<rect class="cls-6" x="544.86" y="223.73" width="2.69" height="5.02"/>
<rect class="cls-7" x="547.56" y="223.73" width="2.69" height="5.02"/>
<rect class="cls-8" x="550.25" y="223.73" width=".74" height="5.02"/>
<path class="cls-9" transform="translate(-477.36 -406.76)" d="m1016.8 619.84z"/>
<rect class="cls-9" x="539.48" y="213.08" width="2.69" height="18.92"/>
<rect class="cls-5" x="542.17" y="213.08" width="2.69" height="18.92"/>
<rect class="cls-6" x="544.86" y="213.08" width="2.69" height="18.92"/>
<rect class="cls-7" x="547.56" y="213.08" width="2.69" height="18.92"/>
<rect class="cls-8" x="550.25" y="213.08" width="2.69" height="18.92"/>
<rect class="cls-10" x="552.94" y="213.08" width="2.04" height="18.92"/>
</g>
<g class="cls-11">
<rect class="cls-12" x="562.09" y="216.76" width="1.63" height="11.51"/>
<rect class="cls-13" x="563.71" y="216.76" width="2.69" height="11.51"/>
<rect class="cls-14" x="566.41" y="216.76" width="2.69" height="11.51"/>
<rect class="cls-15" x="569.1" y="216.76" width="2.69" height="11.51"/>
<rect class="cls-16" x="571.79" y="216.76" width="1.22" height="11.51"/>
<rect class="cls-17" x="557.95" y="203.89" width=".37" height="28.07"/>
<rect class="cls-18" x="558.33" y="203.89" width="2.69" height="28.07"/>
<rect class="cls-12" x="561.02" y="203.89" width="2.69" height="28.07"/>
<rect class="cls-13" x="563.71" y="203.89" width="2.69" height="28.07"/>
<rect class="cls-14" x="566.41" y="203.89" width="2.69" height="28.07"/>
<rect class="cls-15" x="569.1" y="203.89" width="2.69" height="28.07"/>
<rect class="cls-16" x="571.79" y="203.89" width="2.69" height="28.07"/>
<rect class="cls-19" x="574.49" y="203.89" width="2.52" height="28.07"/>
</g>
<g class="cls-20">
<rect class="cls-21" x="579.3" y="213.45" width=".57" height="18.24"/>
<rect class="cls-22" x="579.87" y="213.45" width="2.69" height="18.24"/>
<rect class="cls-23" x="582.56" y="213.45" width="2.69" height="18.24"/>
<rect class="cls-24" x="585.26" y="213.45" width="2.69" height="18.24"/>
<rect class="cls-25" x="587.95" y="213.45" width="2.69" height="18.24"/>
<rect class="cls-26" x="590.64" y="213.45" width="2.69" height="18.24"/>
<rect class="cls-27" x="593.34" y="213.45" width="2.69" height="18.24"/>
<rect class="cls-28" x="596.03" y="213.45" width="2.67" height="18.24"/>
</g>
<g class="cls-29">
<rect class="cls-30" x="603.51" y="216.56" width=".6" height="4.13"/>
<rect class="cls-31" x="604.11" y="216.56" width="2.69" height="4.13"/>
<rect class="cls-32" x="606.8" y="216.56" width="2.69" height="4.13"/>
<rect class="cls-33" x="609.49" y="216.56" width="2.69" height="4.13"/>
<rect class="cls-34" x="612.19" y="216.56" width=".89" height="4.13"/>
<rect class="cls-35" x="599.14" y="213.08" width="2.27" height="18.95"/>
<rect class="cls-30" x="601.41" y="213.08" width="2.69" height="18.95"/>
<rect class="cls-31" x="604.11" y="213.08" width="2.69" height="18.95"/>
<rect class="cls-32" x="606.8" y="213.08" width="2.69" height="18.95"/>
<rect class="cls-33" x="609.49" y="213.08" width="2.69" height="18.95"/>
<rect class="cls-34" x="612.19" y="213.08" width="2.69" height="18.95"/>
<rect class="cls-36" x="614.88" y="213.08" width="2.33" height="18.95"/>
</g>
<g class="cls-37">
<rect class="cls-38" x="620.35" y="213.28" width="2.61" height="18.41"/>
<rect class="cls-39" x="622.96" y="213.28" width="2.69" height="18.41"/>
<rect class="cls-40" x="625.65" y="213.28" width="2.69" height="18.41"/>
<rect class="cls-41" x="628.34" y="213.28" width="1.97" height="18.41"/>
</g>
<g class="cls-42">
<rect class="cls-41" x="630.8" y="207.82" width=".24" height="24.08"/>
<rect class="cls-43" x="631.04" y="207.82" width="2.69" height="24.08"/>
<rect class="cls-44" x="633.73" y="207.82" width="2.69" height="24.08"/>
<rect class="cls-45" x="636.42" y="207.82" width="2.69" height="24.08"/>
<rect class="cls-46" x="639.11" y="207.82" width="2.69" height="24.08"/>
<rect class="cls-47" x="641.81" y="207.82" width=".87" height="24.08"/>
</g>
<g class="cls-48">
<rect class="cls-49" x="645.92" y="213.45" width="1.27" height="18.24"/>
<rect class="cls-50" x="647.19" y="213.45" width="2.69" height="18.24"/>
<rect class="cls-51" x="649.88" y="213.45" width=".1" height="18.24"/>
<rect class="cls-49" x="645" y="204.57" width="2.19" height="5.91"/>
<rect class="cls-50" x="647.19" y="204.57" width="2.69" height="5.91"/>
<rect class="cls-51" x="649.88" y="204.57" width=".99" height="5.91"/>
</g>
<g class="cls-52">
<rect class="cls-53" x="652.75" y="213.08" width="2.52" height="18.92"/>
<rect class="cls-54" x="655.27" y="213.08" width="2.69" height="18.92"/>
<rect class="cls-55" x="657.96" y="213.08" width="2.69" height="18.92"/>
<rect class="cls-56" x="660.66" y="213.08" width="2.69" height="18.92"/>
<rect class="cls-57" x="663.35" y="213.08" width="2.69" height="18.92"/>
<rect class="cls-58" x="666.04" y="213.08" width="1.16" height="18.92"/>
</g>
<g class="cls-59">
<rect class="cls-60" x="670.51" y="213.45" width=".92" height="18.24"/>
<rect class="cls-61" x="671.43" y="213.45" width="2.69" height="18.24"/>
<rect class="cls-62" x="674.12" y="213.45" width=".46" height="18.24"/>
<rect class="cls-60" x="669.59" y="204.57" width="1.84" height="5.91"/>
<rect class="cls-61" x="671.43" y="204.57" width="2.69" height="5.91"/>
<rect class="cls-62" x="674.12" y="204.57" width="1.34" height="5.91"/>
</g>
<g class="cls-63">
<rect class="cls-64" x="678.98" y="213.08" width=".52" height="18.61"/>
<rect class="cls-65" x="679.51" y="213.08" width="2.69" height="18.61"/>
<rect class="cls-66" x="682.2" y="213.08" width="2.69" height="18.61"/>
<rect class="cls-67" x="684.89" y="213.08" width="2.69" height="18.61"/>
<rect class="cls-68" x="687.58" y="213.08" width="2.69" height="18.61"/>
<rect class="cls-69" x="690.28" y="213.08" width="2.69" height="18.61"/>
<rect class="cls-70" x="692.97" y="213.08" width="2.37" height="18.61"/>
</g>
<g class="cls-71">
<rect class="cls-72" x="702.37" y="216.76" width="1.37" height="11.41"/>
<rect class="cls-73" x="703.74" y="216.76" width="2.69" height="11.41"/>
<rect class="cls-74" x="706.43" y="216.76" width="2.69" height="11.41"/>
<rect class="cls-75" x="709.13" y="216.76" width="2.69" height="11.41"/>
<rect class="cls-76" x="711.82" y="216.76" width="1.41" height="11.41"/>
<rect class="cls-77" x="698.31" y="213.14" width=".04" height="27.66"/>
<rect class="cls-78" x="698.36" y="213.14" width="2.69" height="27.66"/>
<rect class="cls-72" x="701.05" y="213.14" width="2.69" height="27.66"/>
<rect class="cls-73" x="703.74" y="213.14" width="2.69" height="27.66"/>
<rect class="cls-74" x="706.43" y="213.14" width="2.69" height="27.66"/>
<rect class="cls-75" x="709.13" y="213.14" width="2.69" height="27.66"/>
<rect class="cls-76" x="711.82" y="213.14" width="2.69" height="27.66"/>
<rect class="cls-79" x="714.51" y="213.14" width="2.69" height="27.66"/>
<rect class="cls-80" x="717.21" y="213.14" width=".02" height="27.66"/>
</g>
<g class="cls-81">
<rect class="cls-82" x="732.53" y="216.76" width=".83" height="11.51"/>
<rect class="cls-83" x="733.36" y="216.76" width="2.69" height="11.51"/>
<rect class="cls-84" x="736.06" y="216.76" width="2.69" height="11.51"/>
<rect class="cls-85" x="738.75" y="216.76" width="2.69" height="11.51"/>
<rect class="cls-86" x="741.44" y="216.76" width="2.01" height="11.51"/>
<rect class="cls-87" x="728.4" y="203.89" width="2.27" height="28.07"/>
<rect class="cls-82" x="730.67" y="203.89" width="2.69" height="28.07"/>
<rect class="cls-83" x="733.36" y="203.89" width="2.69" height="28.07"/>
<rect class="cls-84" x="736.06" y="203.89" width="2.69" height="28.07"/>
<rect class="cls-85" x="738.75" y="203.89" width="2.69" height="28.07"/>
<rect class="cls-86" x="741.44" y="203.89" width="2.69" height="28.07"/>
<rect class="cls-88" x="744.13" y="203.89" width="2.69" height="28.07"/>
<rect class="cls-89" x="746.83" y="203.89" width=".62" height="28.07"/>
</g>
<g class="cls-90">
<rect class="cls-91" x="754.79" y="216.76" width=".11" height="11.54"/>
<rect class="cls-92" x="754.9" y="216.76" width="2.69" height="11.54"/>
<rect class="cls-93" x="757.6" y="216.76" width="2.69" height="11.54"/>
<rect class="cls-94" x="760.29" y="216.76" width="2.69" height="11.54"/>
<rect class="cls-95" x="762.98" y="216.76" width="2.69" height="11.54"/>
<rect class="cls-96" x="765.68" y="216.76" width=".05" height="11.54"/>
<rect class="cls-97" x="750.63" y="213.08" width="1.58" height="18.92"/>
<rect class="cls-91" x="752.21" y="213.08" width="2.69" height="18.92"/>
<rect class="cls-92" x="754.9" y="213.08" width="2.69" height="18.92"/>
<rect class="cls-93" x="757.6" y="213.08" width="2.69" height="18.92"/>
<rect class="cls-94" x="760.29" y="213.08" width="2.69" height="18.92"/>
<rect class="cls-95" x="762.98" y="213.08" width="2.69" height="18.92"/>
<rect class="cls-96" x="765.68" y="213.08" width="2.69" height="18.92"/>
<rect class="cls-98" x="768.37" y="213.08" width="1.49" height="18.92"/>
</g>
<g class="cls-99">
<rect class="cls-100" x="773.07" y="213.08" width=".69" height="18.61"/>
<rect class="cls-101" x="773.75" y="213.08" width="2.69" height="18.61"/>
<rect class="cls-102" x="776.45" y="213.08" width="2.69" height="18.61"/>
<rect class="cls-103" x="779.14" y="213.08" width="2.69" height="18.61"/>
<rect class="cls-104" x="781.83" y="213.08" width="2.69" height="18.61"/>
<rect class="cls-105" x="784.53" y="213.08" width="2.69" height="18.61"/>
<rect class="cls-106" x="787.22" y="213.08" width="2.2" height="18.61"/>
</g>
<g class="cls-107">
<rect class="cls-108" x="796.8" y="216.56" width="1.19" height="4.13"/>
<rect class="cls-109" x="797.99" y="216.56" width="2.69" height="4.13"/>
<rect class="cls-110" x="800.68" y="216.56" width="2.69" height="4.13"/>
<rect class="cls-111" x="803.38" y="216.56" width="2.69" height="4.13"/>
<rect class="cls-112" x="806.07" y="216.56" width=".29" height="4.13"/>
<rect class="cls-113" x="792.43" y="213.08" width=".18" height="18.95"/>
<rect class="cls-114" x="792.6" y="213.08" width="2.69" height="18.95"/>
<rect class="cls-108" x="795.3" y="213.08" width="2.69" height="18.95"/>
<rect class="cls-109" x="797.99" y="213.08" width="2.69" height="18.95"/>
<rect class="cls-110" x="800.68" y="213.08" width="2.69" height="18.95"/>
<rect class="cls-111" x="803.38" y="213.08" width="2.69" height="18.95"/>
<rect class="cls-112" x="806.07" y="213.08" width="2.69" height="18.95"/>
<rect class="cls-115" x="808.76" y="213.08" width="1.73" height="18.95"/>
</g>
<g class="cls-116">
<rect class="cls-117" x="821.63" y="213.28" width=".6" height="18.41"/>
<rect class="cls-118" x="822.23" y="213.28" width="2.69" height="18.41"/>
<rect class="cls-119" x="824.92" y="213.28" width="2.69" height="18.41"/>
<rect class="cls-120" x="827.61" y="213.28" width="2.69" height="18.41"/>
<rect class="cls-121" x="830.3" y="213.28" width="1.29" height="18.41"/>
</g>
<g class="cls-122">
<rect class="cls-123" x="834.02" y="213.45" width="1.67" height="18.24"/>
<rect class="cls-124" x="835.69" y="213.45" width="2.4" height="18.24"/>
<rect class="cls-123" x="833.1" y="204.57" width="2.59" height="5.91"/>
<rect class="cls-124" x="835.69" y="204.57" width="2.69" height="5.91"/>
<rect class="cls-125" x="838.38" y="204.57" width=".59" height="5.91"/>
</g>
<g class="cls-126">
<rect class="cls-127" x="845.29" y="216.76" width="1.17" height="11.41"/>
<rect class="cls-128" x="846.46" y="216.76" width="2.69" height="11.41"/>
<rect class="cls-129" x="849.15" y="216.76" width="2.69" height="11.41"/>
<rect class="cls-130" x="851.85" y="216.76" width="2.69" height="11.41"/>
<rect class="cls-131" x="854.54" y="216.76" width="1.61" height="11.41"/>
<rect class="cls-132" x="841.23" y="213.14" width="2.54" height="27.66"/>
<rect class="cls-127" x="843.77" y="213.14" width="2.69" height="27.66"/>
<rect class="cls-128" x="846.46" y="213.14" width="2.69" height="27.66"/>
<rect class="cls-129" x="849.15" y="213.14" width="2.69" height="27.66"/>
<rect class="cls-130" x="851.85" y="213.14" width="2.69" height="27.66"/>
<rect class="cls-131" x="854.54" y="213.14" width="2.69" height="27.66"/>
<rect class="cls-133" x="857.23" y="213.14" width="2.69" height="27.66"/>
<rect class="cls-134" x="859.92" y="213.14" width=".22" height="27.66"/>
</g>
<g class="cls-135">
<rect class="cls-136" x="864.59" y="203.89" width=".72" height="27.8"/>
<rect class="cls-137" x="865.31" y="203.89" width="2.69" height="27.8"/>
<rect class="cls-138" x="868" y="203.89" width="2.69" height="27.8"/>
<rect class="cls-139" x="870.7" y="203.89" width="2.69" height="27.8"/>
<rect class="cls-140" x="873.39" y="203.89" width="2.69" height="27.8"/>
<rect class="cls-141" x="876.08" y="203.89" width="2.69" height="27.8"/>
<rect class="cls-142" x="878.77" y="203.89" width="2.17" height="27.8"/>
</g>
<g class="cls-143">
<rect class="cls-144" x="883.23" y="207.82" width=".93" height="24.08"/>
<rect class="cls-145" x="884.16" y="207.82" width="2.69" height="24.08"/>
<rect class="cls-146" x="886.85" y="207.82" width="2.69" height="24.08"/>
<rect class="cls-147" x="889.55" y="207.82" width="2.69" height="24.08"/>
<rect class="cls-148" x="892.24" y="207.82" width="2.69" height="24.08"/>
<rect class="cls-148" x="894.93" y="207.82" width=".18" height="24.08"/>
</g>
<path class="cls-148" transform="translate(-477.36 -406.76)" d="m612.34 551.89-131.63 55.74a5.48 5.48 0 0 0 -3.35 5v57.08a5.49 5.49 0 0 0 7.62 5l133-56.34a5.49 5.49 0 0 0 3.35 -5.05v-70.46c-1.93 4.28-5.33 6.99-8.99 9.03z"/>
<path class="cls-149" transform="translate(-477.36 -406.76)" d="M608.48,529l-119-50.41c-4.41-2.93-9.16-6.2-12.07-12.54v75.47a5.33,5.33,0,0,0,3.27,4.92l52.88,22.39a5.3,5.3,0,0,0,4.17,0l70.8-30A5.36,5.36,0,0,0,608.48,529Z"/>
<path class="cls-9" transform="translate(-477.36 -406.76)" d="M621.38,412.11V473a5.36,5.36,0,0,1-3.26,4.92L571.29,497.7a5.39,5.39,0,0,1-4.17,0l-71.84-30.42a5.35,5.35,0,0,1-3.26-4.92h0a5.33,5.33,0,0,1,3.26-4.92L614,407.19A5.35,5.35,0,0,1,621.38,412.11Z"/>
<path class="cls-9" transform="translate(-477.36 -406.76)" d="m1100.1 591.7l44.35-116.14h28.93l44.49 116.14h-24.77l-8.75-23.44h-51.47l-8.6 23.44zm41.09-45.7h35l-17.5-47.17z"/>
<path class="cls-149" transform="translate(-477.36 -406.76)" d="m1278.1 581.61h-0.3c-5.19 7.72-13.5 11.57-24.62 11.57s-20.18-4-27.15-12.16a43.56 43.56 0 0 1 -10.53 -29.02 41.83 41.83 0 0 1 10.83 -28.33c7.27-8.46 16.32-12.61 27.14-12.61 9.94 0 17.8 3.56 23.74 10.53h0.29v-50.59h23v120.7h-22.39zm-19.58-49.69c-11.13 0-19.58 8.31-19.58 20a20.39 20.39 0 0 0 5.63 14.68 20.06 20.06 0 0 0 27.89 0 20.36 20.36 0 0 0 5.64 -14.68c0-11.69-8.46-20-19.58-20z"/>
<path class="cls-148" transform="translate(-477.36 -406.76)" d="m1342.6 593.48c-16.61 0-28.18-6.08-34.56-18.24l17.05-10.09c3.27 6.38 9.2 9.64 17.8 9.64 5.79 0 9.65-2.67 9.65-5.78s-2.53-5.49-12.61-7.72c-18.84-4.15-28.18-12.75-28.18-25.66a21.78 21.78 0 0 1 8.9 -18 33.86 33.86 0 0 1 21.5 -7.12c14.69 0 25.37 6.38 30.56 16l-16.75 10.01c-3-5-7.72-7.56-14.39-7.56-4.75 0-8.31 2.67-8.31 5.78 0 3.41 3.42 5.79 10.39 7.27 20 4.15 30.55 12 30.55 25.81-0.01 15.28-12.02 25.66-31.6 25.66z"/>
<g class="cls-150">
<rect class="cls-9" x="663.85" y="92.08" width="8.08" height="47.17"/>
<rect class="cls-9" x="671.93" y="92.08" width="1.35" height="47.17"/>
<rect class="cls-151" x="673.29" y="92.08" width="1.35" height="47.17"/>
<rect class="cls-152" x="674.64" y="92.08" width="1.35" height="47.17"/>
<rect class="cls-153" x="675.99" y="92.08" width="1.35" height="47.17"/>
<rect class="cls-154" x="677.34" y="92.08" width="1.35" height="47.17"/>
<rect class="cls-155" x="678.7" y="92.08" width="1.35" height="47.17"/>
<rect class="cls-156" x="680.05" y="92.08" width="1.35" height="47.17"/>
<rect class="cls-157" x="681.4" y="92.08" width="1.35" height="47.17"/>
<rect class="cls-158" x="682.75" y="92.08" width="1.35" height="47.17"/>
<rect class="cls-159" x="684.11" y="92.08" width="1.35" height="47.17"/>
<rect class="cls-160" x="685.46" y="92.08" width="1.35" height="47.17"/>
<rect class="cls-161" x="686.81" y="92.08" width="1.35" height="47.17"/>
<rect class="cls-162" x="688.17" y="92.08" width="1.35" height="47.17"/>
<rect class="cls-163" x="689.52" y="92.08" width="1.35" height="47.17"/>
<rect class="cls-164" x="690.87" y="92.08" width="1.35" height="47.17"/>
<rect class="cls-165" x="692.22" y="92.08" width="1.35" height="47.17"/>
<rect class="cls-166" x="693.58" y="92.08" width="1.35" height="47.17"/>
<rect class="cls-167" x="694.93" y="92.08" width="1.35" height="47.17"/>
<rect class="cls-168" x="696.28" y="92.08" width="1.35" height="47.17"/>
<rect class="cls-169" x="697.63" y="92.08" width="1.22" height="47.17"/>
<rect class="cls-9" x="622.76" y="68.8" width="49.17" height="116.14"/>
<rect class="cls-9" x="671.93" y="68.8" width="1.35" height="116.14"/>
<rect class="cls-151" x="673.29" y="68.8" width="1.35" height="116.14"/>
<rect class="cls-152" x="674.64" y="68.8" width="1.35" height="116.14"/>
<rect class="cls-153" x="675.99" y="68.8" width="1.35" height="116.14"/>
<rect class="cls-154" x="677.34" y="68.8" width="1.35" height="116.14"/>
<rect class="cls-155" x="678.7" y="68.8" width="1.35" height="116.14"/>
<rect class="cls-156" x="680.05" y="68.8" width="1.35" height="116.14"/>
<rect class="cls-157" x="681.4" y="68.8" width="1.35" height="116.14"/>
<rect class="cls-158" x="682.75" y="68.8" width="1.35" height="116.14"/>
<rect class="cls-159" x="684.11" y="68.8" width="1.35" height="116.14"/>
<rect class="cls-160" x="685.46" y="68.8" width="1.35" height="116.14"/>
<rect class="cls-161" x="686.81" y="68.8" width="1.35" height="116.14"/>
<rect class="cls-162" x="688.17" y="68.8" width="1.35" height="116.14"/>
<rect class="cls-163" x="689.52" y="68.8" width="1.35" height="116.14"/>
<rect class="cls-164" x="690.87" y="68.8" width="1.35" height="116.14"/>
<rect class="cls-165" x="692.22" y="68.8" width="1.35" height="116.14"/>
<rect class="cls-166" x="693.58" y="68.8" width="1.35" height="116.14"/>
<rect class="cls-167" x="694.93" y="68.8" width="1.35" height="116.14"/>
<rect class="cls-168" x="696.28" y="68.8" width="1.35" height="116.14"/>
<rect class="cls-169" x="697.63" y="68.8" width="1.35" height="116.14"/>
<rect class="cls-170" x="698.99" y="68.8" width="1.35" height="116.14"/>
<rect class="cls-171" x="700.34" y="68.8" width="1.35" height="116.14"/>
<rect class="cls-172" x="701.69" y="68.8" width="1.35" height="116.14"/>
<rect class="cls-173" x="703.04" y="68.8" width="1.35" height="116.14"/>
<rect class="cls-174" x="704.4" y="68.8" width="1.35" height="116.14"/>
<rect class="cls-175" x="705.75" y="68.8" width="1.35" height="116.14"/>
<rect class="cls-176" x="707.1" y="68.8" width="1.35" height="116.14"/>
<rect class="cls-177" x="708.46" y="68.8" width="1.35" height="116.14"/>
<rect class="cls-178" x="709.81" y="68.8" width="1.35" height="116.14"/>
<rect class="cls-179" x="711.16" y="68.8" width="1.35" height="116.14"/>
<rect class="cls-180" x="712.51" y="68.8" width="1.35" height="116.14"/>
<rect class="cls-181" x="713.87" y="68.8" width="1.35" height="116.14"/>
<rect class="cls-182" x="715.22" y="68.8" width="1.35" height="116.14"/>
<rect class="cls-183" x="716.57" y="68.8" width="1.35" height="116.14"/>
<rect class="cls-184" x="717.92" y="68.8" width="1.35" height="116.14"/>
<rect class="cls-185" x="719.28" y="68.8" width="1.35" height="116.14"/>
<rect class="cls-186" x="720.63" y="68.8" width="1.35" height="116.14"/>
<rect class="cls-187" x="721.98" y="68.8" width="1.35" height="116.14"/>
<rect class="cls-188" x="723.34" y="68.8" width="1.35" height="116.14"/>
<rect class="cls-189" x="724.69" y="68.8" width="1.35" height="116.14"/>
<rect class="cls-190" x="726.04" y="68.8" width="1.35" height="116.14"/>
<rect class="cls-191" x="727.39" y="68.8" width="1.35" height="116.14"/>
<rect class="cls-192" x="728.75" y="68.8" width="1.35" height="116.14"/>
<rect class="cls-193" x="730.1" y="68.8" width="1.35" height="116.14"/>
<rect class="cls-194" x="731.45" y="68.8" width="1.35" height="116.14"/>
<rect class="cls-195" x="732.8" y="68.8" width="1.35" height="116.14"/>
<rect class="cls-196" x="734.16" y="68.8" width="1.35" height="116.14"/>
<rect class="cls-197" x="735.51" y="68.8" width="1.35" height="116.14"/>
<rect class="cls-198" x="736.86" y="68.8" width="1.35" height="116.14"/>
<rect class="cls-199" x="738.21" y="68.8" width="1.35" height="116.14"/>
<rect class="cls-200" x="739.57" y="68.8" width=".97" height="116.14"/>
</g>
<g class="cls-201">
<rect class="cls-202" x="761.6" y="125.16" width=".1" height="40.35"/>
<rect class="cls-203" x="761.69" y="125.16" width=".9" height="40.35"/>
<rect class="cls-204" x="762.6" y="125.16" width=".9" height="40.35"/>
<rect class="cls-205" x="763.5" y="125.16" width=".9" height="40.35"/>
<rect class="cls-206" x="764.41" y="125.16" width=".9" height="40.35"/>
<rect class="cls-207" x="765.31" y="125.16" width=".9" height="40.35"/>
<rect class="cls-208" x="766.21" y="125.16" width=".9" height="40.35"/>
<rect class="cls-209" x="767.12" y="125.16" width=".9" height="40.35"/>
<rect class="cls-210" x="768.02" y="125.16" width=".9" height="40.35"/>
<rect class="cls-211" x="768.93" y="125.16" width=".9" height="40.35"/>
<rect class="cls-212" x="769.83" y="125.16" width=".9" height="40.35"/>
<rect class="cls-213" x="770.73" y="125.16" width=".9" height="40.35"/>
<rect class="cls-214" x="771.64" y="125.16" width=".9" height="40.35"/>
<rect class="cls-215" x="772.54" y="125.16" width=".9" height="40.35"/>
<rect class="cls-216" x="773.45" y="125.16" width=".9" height="40.35"/>
<rect class="cls-217" x="774.35" y="125.16" width=".9" height="40.35"/>
<rect class="cls-218" x="775.25" y="125.16" width=".9" height="40.35"/>
<rect class="cls-219" x="776.16" y="125.16" width=".9" height="40.35"/>
<rect class="cls-220" x="777.06" y="125.16" width=".9" height="40.35"/>
<rect class="cls-221" x="777.97" y="125.16" width=".9" height="40.35"/>
<rect class="cls-222" x="778.87" y="125.16" width=".9" height="40.35"/>
<rect class="cls-223" x="779.77" y="125.16" width=".9" height="40.35"/>
<rect class="cls-224" x="780.68" y="125.16" width=".9" height="40.35"/>
<rect class="cls-225" x="781.58" y="125.16" width=".9" height="40.35"/>
<rect class="cls-226" x="782.49" y="125.16" width=".9" height="40.35"/>
<rect class="cls-227" x="783.39" y="125.16" width=".9" height="40.35"/>
<rect class="cls-228" x="784.29" y="125.16" width=".9" height="40.35"/>
<rect class="cls-229" x="785.2" y="125.16" width=".9" height="40.35"/>
<rect class="cls-230" x="786.1" y="125.16" width=".9" height="40.35"/>
<rect class="cls-231" x="787.01" y="125.16" width=".9" height="40.35"/>
<rect class="cls-232" x="787.91" y="125.16" width=".9" height="40.35"/>
<rect class="cls-233" x="788.82" y="125.16" width=".9" height="40.35"/>
<rect class="cls-234" x="789.72" y="125.16" width=".9" height="40.35"/>
<rect class="cls-235" x="790.62" y="125.16" width=".9" height="40.35"/>
<rect class="cls-236" x="791.53" y="125.16" width=".9" height="40.35"/>
<rect class="cls-237" x="792.43" y="125.16" width=".9" height="40.35"/>
<rect class="cls-238" x="793.34" y="125.16" width=".9" height="40.35"/>
<rect class="cls-239" x="794.24" y="125.16" width=".9" height="40.35"/>
<rect class="cls-240" x="795.14" y="125.16" width=".9" height="40.35"/>
<rect class="cls-241" x="796.05" y="125.16" width=".9" height="40.35"/>
<rect class="cls-242" x="796.95" y="125.16" width=".9" height="40.35"/>
<rect class="cls-243" x="797.86" y="125.16" width=".9" height="40.35"/>
<rect class="cls-244" x="798.76" y="125.16" width=".9" height="40.35"/>
<rect class="cls-245" x="799.66" y="125.16" width=".9" height="40.35"/>
<rect class="cls-246" x="800.57" y="125.16" width=".19" height="40.35"/>
<rect class="cls-198" x="738.16" y="64.2" width=".05" height="122.22"/>
<rect class="cls-199" x="738.21" y="64.2" width="1.35" height="122.22"/>
<rect class="cls-200" x="739.57" y="64.2" width="1.35" height="122.22"/>
<rect class="cls-247" x="740.92" y="64.2" width="1.35" height="122.22"/>
<rect class="cls-248" x="742.27" y="64.2" width="1.35" height="122.22"/>
<rect class="cls-249" x="743.63" y="64.2" width="1.35" height="122.22"/>
<rect class="cls-250" x="744.98" y="64.2" width="1.35" height="122.22"/>
<rect class="cls-251" x="746.33" y="64.2" width="1.35" height="122.22"/>
<rect class="cls-149" x="747.68" y="64.2" width="1.35" height="122.22"/>
<rect class="cls-149" x="749.04" y="64.2" width=".9" height="122.22"/>
<rect class="cls-252" x="749.94" y="64.2" width=".9" height="122.22"/>
<rect class="cls-253" x="750.84" y="64.2" width=".9" height="122.22"/>
<rect class="cls-254" x="751.75" y="64.2" width=".9" height="122.22"/>
<rect class="cls-255" x="752.65" y="64.2" width=".9" height="122.22"/>
<rect class="cls-256" x="753.56" y="64.2" width=".9" height="122.22"/>
<rect class="cls-257" x="754.46" y="64.2" width=".9" height="122.22"/>
<rect class="cls-258" x="755.36" y="64.2" width=".9" height="122.22"/>
<rect class="cls-259" x="756.27" y="64.2" width=".9" height="122.22"/>
<rect class="cls-260" x="757.17" y="64.2" width=".9" height="122.22"/>
<rect class="cls-261" x="758.08" y="64.2" width=".9" height="122.22"/>
<rect class="cls-262" x="758.98" y="64.2" width=".9" height="122.22"/>
<rect class="cls-263" x="759.89" y="64.2" width=".9" height="122.22"/>
<rect class="cls-202" x="760.79" y="64.2" width=".9" height="122.22"/>
<rect class="cls-203" x="761.69" y="64.2" width=".9" height="122.22"/>
<rect class="cls-204" x="762.6" y="64.2" width=".9" height="122.22"/>
<rect class="cls-205" x="763.5" y="64.2" width=".9" height="122.22"/>
<rect class="cls-206" x="764.41" y="64.2" width=".9" height="122.22"/>
<rect class="cls-207" x="765.31" y="64.2" width=".9" height="122.22"/>
<rect class="cls-208" x="766.21" y="64.2" width=".9" height="122.22"/>
<rect class="cls-209" x="767.12" y="64.2" width=".9" height="122.22"/>
<rect class="cls-210" x="768.02" y="64.2" width=".9" height="122.22"/>
<rect class="cls-211" x="768.93" y="64.2" width=".9" height="122.22"/>
<rect class="cls-212" x="769.83" y="64.2" width=".9" height="122.22"/>
<rect class="cls-213" x="770.73" y="64.2" width=".9" height="122.22"/>
<rect class="cls-214" x="771.64" y="64.2" width=".9" height="122.22"/>
<rect class="cls-215" x="772.54" y="64.2" width=".9" height="122.22"/>
<rect class="cls-216" x="773.45" y="64.2" width=".9" height="122.22"/>
<rect class="cls-217" x="774.35" y="64.2" width=".9" height="122.22"/>
<rect class="cls-218" x="775.25" y="64.2" width=".9" height="122.22"/>
<rect class="cls-219" x="776.16" y="64.2" width=".9" height="122.22"/>
<rect class="cls-220" x="777.06" y="64.2" width=".9" height="122.22"/>
<rect class="cls-221" x="777.97" y="64.2" width=".9" height="122.22"/>
<rect class="cls-222" x="778.87" y="64.2" width=".9" height="122.22"/>
<rect class="cls-223" x="779.77" y="64.2" width=".9" height="122.22"/>
<rect class="cls-224" x="780.68" y="64.2" width=".9" height="122.22"/>
<rect class="cls-225" x="781.58" y="64.2" width=".9" height="122.22"/>
<rect class="cls-226" x="782.49" y="64.2" width=".9" height="122.22"/>
<rect class="cls-227" x="783.39" y="64.2" width=".9" height="122.22"/>
<rect class="cls-228" x="784.29" y="64.2" width=".9" height="122.22"/>
<rect class="cls-229" x="785.2" y="64.2" width=".9" height="122.22"/>
<rect class="cls-230" x="786.1" y="64.2" width=".9" height="122.22"/>
<rect class="cls-231" x="787.01" y="64.2" width=".9" height="122.22"/>
<rect class="cls-232" x="787.91" y="64.2" width=".9" height="122.22"/>
<rect class="cls-233" x="788.82" y="64.2" width=".9" height="122.22"/>
<rect class="cls-234" x="789.72" y="64.2" width=".9" height="122.22"/>
<rect class="cls-235" x="790.62" y="64.2" width=".9" height="122.22"/>
<rect class="cls-236" x="791.53" y="64.2" width=".9" height="122.22"/>
<rect class="cls-237" x="792.43" y="64.2" width=".9" height="122.22"/>
<rect class="cls-238" x="793.34" y="64.2" width=".9" height="122.22"/>
<rect class="cls-239" x="794.24" y="64.2" width=".9" height="122.22"/>
<rect class="cls-240" x="795.14" y="64.2" width=".9" height="122.22"/>
<rect class="cls-241" x="796.05" y="64.2" width=".9" height="122.22"/>
<rect class="cls-242" x="796.95" y="64.2" width=".9" height="122.22"/>
<rect class="cls-243" x="797.86" y="64.2" width=".9" height="122.22"/>
<rect class="cls-244" x="798.76" y="64.2" width=".9" height="122.22"/>
<rect class="cls-245" x="799.66" y="64.2" width=".9" height="122.22"/>
<rect class="cls-246" x="800.57" y="64.2" width=".9" height="122.22"/>
<rect class="cls-264" x="801.47" y="64.2" width=".9" height="122.22"/>
<rect class="cls-265" x="802.38" y="64.2" width=".9" height="122.22"/>
<rect class="cls-266" x="803.28" y="64.2" width=".9" height="122.22"/>
<rect class="cls-267" x="804.18" y="64.2" width=".9" height="122.22"/>
<rect class="cls-268" x="805.09" y="64.2" width=".9" height="122.22"/>
<rect class="cls-269" x="805.99" y="64.2" width=".9" height="122.22"/>
<rect class="cls-270" x="806.9" y="64.2" width=".9" height="122.22"/>
<rect class="cls-271" x="807.8" y="64.2" width=".9" height="122.22"/>
<rect class="cls-272" x="808.7" y="64.2" width=".9" height="122.22"/>
<rect class="cls-273" x="809.61" y="64.2" width=".9" height="122.22"/>
<rect class="cls-274" x="810.51" y="64.2" width=".9" height="122.22"/>
<rect class="cls-275" x="811.42" y="64.2" width=".9" height="122.22"/>
<rect class="cls-276" x="812.32" y="64.2" width=".9" height="122.22"/>
<rect class="cls-277" x="813.22" y="64.2" width=".9" height="122.22"/>
<rect class="cls-278" x="814.13" y="64.2" width=".9" height="122.22"/>
<rect class="cls-279" x="815.03" y="64.2" width=".9" height="122.22"/>
<rect class="cls-148" x="815.94" y="64.2" width=".9" height="122.22"/>
<rect class="cls-148" x="816.84" y="64.2" width="6.31" height="122.22"/>
</g>
<g class="cls-280">
<rect class="cls-148" x="830.72" y="103.8" width="66.16" height="82.92"/>
</g>
</svg>
