<?xml version="1.0" encoding="utf-8"?>
<!-- Generator: Adobe Illustrator 26.0.1, SVG Export Plug-In . SVG Version: 6.00 Build 0)  -->
<svg version="1.1" id="Camada_1" xmlns="http://www.w3.org/2000/svg" xmlns:xlink="http://www.w3.org/1999/xlink" x="0px" y="0px"
	 viewBox="0 0 896.9 268.5" style="enable-background:new 0 0 896.9 268.5;" xml:space="preserve">
<style type="text/css">
	.st0{fill:#1B2C3B;}
	.st1{opacity:0.1;}
	.st2{fill:#3D53FC;}
	.st3{fill:#0033B1;}
	.st4{fill:#051678;}
	.st5{clip-path:url(#SVGID_00000016065268365619586160000014481453979290395572_);}
	.st6{fill:#051779;}
	.st7{fill:#05177A;}
	.st8{fill:#05187B;}
	.st9{fill:#05187C;}
	.st10{fill:#05197D;}
	.st11{fill:#04197E;}
	.st12{fill:#041A7F;}
	.st13{fill:#041A80;}
	.st14{fill:#041B81;}
	.st15{fill:#041B82;}
	.st16{fill:#041C83;}
	.st17{fill:#041C84;}
	.st18{fill:#041D85;}
	.st19{fill:#041D86;}
	.st20{fill:#041E87;}
	.st21{fill:#041E88;}
	.st22{fill:#031F89;}
	.st23{fill:#031F8A;}
	.st24{fill:#03208B;}
	.st25{fill:#03208C;}
	.st26{fill:#03218D;}
	.st27{fill:#03218E;}
	.st28{fill:#03228F;}
	.st29{fill:#032290;}
	.st30{fill:#032391;}
	.st31{fill:#032392;}
	.st32{fill:#032493;}
	.st33{fill:#022595;}
	.st34{fill:#022596;}
	.st35{fill:#022697;}
	.st36{fill:#022698;}
	.st37{fill:#022799;}
	.st38{fill:#02279A;}
	.st39{fill:#02289B;}
	.st40{fill:#02289C;}
	.st41{fill:#02299D;}
	.st42{fill:#02299E;}
	.st43{fill:#022A9F;}
	.st44{fill:#022AA0;}
	.st45{fill:#012BA1;}
	.st46{fill:#012BA2;}
	.st47{fill:#012CA3;}
	.st48{fill:#012CA4;}
	.st49{fill:#012DA5;}
	.st50{fill:#012DA6;}
	.st51{fill:#012EA7;}
	.st52{fill:#012EA8;}
	.st53{fill:#012FA9;}
	.st54{fill:#012FAA;}
	.st55{fill:#0130AB;}
	.st56{clip-path:url(#SVGID_00000064333620863990721940000016321756928305797780_);}
	.st57{fill:#0B39BE;}
	.st58{fill:#0C39BF;}
	.st59{fill:#0C39C0;}
	.st60{fill:#0D3AC1;}
	.st61{fill:#0E3AC2;}
	.st62{fill:#0F3BC3;}
	.st63{fill:#103BC4;}
	.st64{fill:#103CC5;}
	.st65{fill:#113CC6;}
	.st66{fill:#123DC7;}
	.st67{fill:#133DC8;}
	.st68{fill:#143DC9;}
	.st69{fill:#153ECA;}
	.st70{fill:#153ECB;}
	.st71{fill:#163FCC;}
	.st72{fill:#173FCD;}
	.st73{fill:#1840CE;}
	.st74{fill:#1940CF;}
	.st75{fill:#1A40D0;}
	.st76{fill:#1A41D1;}
	.st77{fill:#1B41D2;}
	.st78{fill:#1C42D3;}
	.st79{fill:#1D42D4;}
	.st80{fill:#1E43D5;}
	.st81{fill:#1F43D7;}
	.st82{fill:#1F43D8;}
	.st83{fill:#2044D9;}
	.st84{fill:#2144DA;}
	.st85{fill:#2245DB;}
	.st86{fill:#2345DC;}
	.st87{fill:#2346DD;}
	.st88{fill:#2446DE;}
	.st89{fill:#2546DF;}
	.st90{fill:#2647E0;}
	.st91{fill:#2747E1;}
	.st92{fill:#2848E2;}
	.st93{fill:#2848E3;}
	.st94{fill:#2949E4;}
	.st95{fill:#2A49E5;}
	.st96{fill:#2B49E6;}
	.st97{fill:#2C4AE7;}
	.st98{fill:#2D4AE8;}
	.st99{fill:#2D4BE9;}
	.st100{fill:#2E4BEA;}
	.st101{fill:#2F4CEB;}
	.st102{fill:#0030AC;}
	.st103{fill:#0031AD;}
	.st104{fill:#0031AE;}
	.st105{fill:#0032AF;}
	.st106{fill:#0032B0;}
	.st107{fill:#0133B2;}
	.st108{fill:#0234B3;}
	.st109{fill:#0234B4;}
	.st110{fill:#0335B5;}
	.st111{fill:#0435B6;}
	.st112{fill:#0536B7;}
	.st113{fill:#0636B8;}
	.st114{fill:#0736B9;}
	.st115{fill:#0737BA;}
	.st116{fill:#0837BB;}
	.st117{fill:#0938BC;}
	.st118{fill:#0A38BD;}
	.st119{fill:#304CEC;}
	.st120{fill:#314DED;}
	.st121{fill:#314DEE;}
	.st122{fill:#324DEF;}
	.st123{fill:#334EF0;}
	.st124{fill:#344EF1;}
	.st125{fill:#354FF2;}
	.st126{fill:#364FF3;}
	.st127{fill:#3650F4;}
	.st128{fill:#3750F5;}
	.st129{fill:#3850F6;}
	.st130{fill:#3951F7;}
	.st131{fill:#3A51F8;}
	.st132{fill:#3B52F9;}
	.st133{fill:#3B52FA;}
	.st134{fill:#3C53FB;}
	.st135{clip-path:url(#SVGID_00000085240582686982074460000017402127208579838630_);}
</style>
<path class="st0" d="M194.1,157.1l10.6-5.5c5.9,14.4,14.7,22.4,29.7,22.4c7,0,12.9-1.9,17.7-5.6c4.7-3.3,7.4-8.8,7.3-14.5
	c0-11.9-9.2-18.8-27-23.1c-23.7-5.8-34.7-16-34.7-32.2c0-9.6,3.6-17.2,10.7-23s15.7-8.8,25.8-8.8c18.4,0,31.2,9.5,36.6,24.2
	l-10.4,5.8c-5-12.3-13.8-18.5-26.6-18.5c-6.1-0.2-12.1,1.8-16.9,5.5c-4.5,3.3-7.2,8.6-7.1,14.2c0,10.5,7.1,16.2,24.8,20.8
	c13.6,3.4,23.4,8.3,29.2,14.7c5.3,5.8,8,12.3,8,19.6c0,8.9-3.4,16.6-10.2,23s-15.9,9.5-27.1,9.5C214.5,185.5,201.2,176,194.1,157.1z
	"/>
<path class="st0" d="M287.6,68c4.8,0,8.7,3.8,8.7,8.6s-3.8,8.7-8.6,8.7c-4.8,0-8.7-3.8-8.7-8.6C279,71.9,282.8,68,287.6,68
	C287.6,68,287.6,68,287.6,68z M293.6,184.2h-11.8v-79.2h11.8V184.2z"/>
<path class="st0" d="M362.6,184.2v-46.4c0-13.8-6.8-23.7-20.5-23.7c-6.2-0.2-12.1,2.6-16,7.4c-4,5-6.1,11.2-5.9,17.7v45.1h-11.6
	v-79.2H320v13.8c6.7-10.2,14.2-15.3,25.5-15.3c12,0,20.5,5.3,25.4,15.9c6.8-10.5,16.2-15.7,27.9-15.7c18.5,0,29.2,12.6,29.2,31.6
	v48.9h-11.6v-46.1c0-14.2-6.7-23.9-20.5-23.9c-6.7,0-12,2.4-16,7.1c-4,4.6-5.9,10.4-5.9,17.3v45.5H362.6z"/>
<path class="st0" d="M510.9,173.3c-7,8.2-15.9,12.2-26.7,12.2c-12.9,0-23.1-5.8-30.6-17.5v55.3h-11.6V105.1h11.4v17.2
	c7.9-12.3,18.1-18.5,30.7-18.5c10.3-0.2,20.2,4.3,26.7,12.3C524.9,132.5,524.9,156.8,510.9,173.3L510.9,173.3z M502,166.6
	c5-5.8,7.6-13.1,7.6-21.8c0-8.6-2.5-15.9-7.6-21.8c-5-6.1-11.7-9-20.2-9c-8,0-14.7,3.1-20.2,9.2c-5.4,5.8-8.3,13.4-8.2,21.2
	c-0.2,8,2.7,15.8,8,21.8c5.1,5.9,12.5,9.2,20.3,9C490.3,175.2,497.1,172.4,502,166.6L502,166.6z"/>
<path class="st0" d="M542.4,184.2h-11.7V63.4h11.7V184.2z"/>
<path class="st0" d="M563.4,148.2c0.3,7.4,3.4,14.3,8.8,19.4c5.2,5.1,12.3,7.9,19.6,7.7c10.7,0,20.5-6.2,25.1-15.9l8.6,5.6
	c-6.3,12.7-19.4,20.7-33.5,20.5c-10.8,0.2-21.2-4.1-28.6-11.9c-7.6-7.8-11.8-18.3-11.6-29.2c-0.1-10.6,3.9-20.9,11.1-28.6
	c6.9-7.9,16.9-12.3,27.4-12.2c11.9,0,21.1,3.9,27.6,11.4s9.8,17.2,9.8,29.2c0,1.3,0,2.6-0.2,3.8L563.4,148.2z M615.9,138.5
	c-1.6-14.8-10.8-24.6-25.7-24.6c-6.6-0.1-13,2.6-17.7,7.3c-4.9,4.6-8.1,10.7-9,17.3H615.9z"/>
<g class="st1">
	<path d="M139.9-2"/>
</g>
<path class="st2" d="M135,145.1L3.4,200.9c-2,0.8-3.3,2.8-3.4,5V263c0,3,2.5,5.5,5.5,5.4c0.7,0,1.4-0.2,2.1-0.4l133-56.3
	c2-0.9,3.3-2.8,3.3-5v-70.5C142,140.4,138.6,143.1,135,145.1L135,145.1z"/>
<path class="st3" d="M131.1,122.2l-119-50.4C7.7,68.9,3,65.6,0,59.3v75.5c0,2.1,1.3,4.1,3.3,4.9l52.9,22.4c1.3,0.6,2.8,0.6,4.2,0
	l70.8-30c2.7-1.2,3.9-4.4,2.7-7.1C133.4,123.8,132.4,122.8,131.1,122.2z"/>
<path class="st4" d="M144,5.3v60.9c0,2.1-1.3,4.1-3.3,4.9L93.9,90.9c-1.3,0.6-2.8,0.6-4.2,0L17.9,60.5c-2-0.8-3.3-2.8-3.3-4.9l0,0
	c0-2.1,1.3-4.1,3.3-4.9L136.6,0.4c2.7-1.1,5.9,0.2,7,2.9C143.9,4,144,4.7,144,5.3z"/>
<path class="st4" d="M622.7,184.9l44.3-116.1H696l44.5,116.1h-24.8l-8.8-23.4h-51.5l-8.6,23.4H622.7z M663.8,139.2h35l-17.5-47.2
	L663.8,139.2z"/>
<path class="st3" d="M800.7,174.8h-0.3c-5.2,7.7-13.5,11.6-24.6,11.6s-20.2-4-27.2-12.2c-6.9-8.1-10.7-18.4-10.5-29
	c-0.1-10.5,3.8-20.6,10.8-28.3c7.3-8.5,16.3-12.6,27.1-12.6c9.9,0,17.8,3.6,23.7,10.5h0.3V64.2h23v120.7h-22.4L800.7,174.8z
	 M781.2,125.2c-11.1,0-19.6,8.3-19.6,20c-0.2,5.4,1.9,10.7,5.6,14.7c7.8,7.5,20.1,7.5,27.9,0c3.8-3.9,5.8-9.2,5.6-14.7
	C800.7,133.5,792.3,125.2,781.2,125.2L781.2,125.2z"/>
<path class="st2" d="M865.2,186.7c-16.6,0-28.2-6.1-34.6-18.2l17.1-10.1c3.3,6.4,9.2,9.6,17.8,9.6c5.8,0,9.7-2.7,9.7-5.8
	s-2.5-5.5-12.6-7.7c-18.8-4.2-28.2-12.8-28.2-25.7c-0.1-7.1,3.2-13.8,8.9-18c6.1-4.8,13.7-7.3,21.5-7.1c14.7,0,25.4,6.4,30.6,16
	l-16.8,10c-3-5-7.7-7.6-14.4-7.6c-4.8,0-8.3,2.7-8.3,5.8c0,3.4,3.4,5.8,10.4,7.3c20,4.2,30.6,12,30.6,25.8
	C896.8,176.3,884.8,186.7,865.2,186.7L865.2,186.7z"/>
<g>
	<defs>
		<path id="SVGID_1_" d="M622.7,184.9l44.3-116.1H696l44.5,116.1h-24.8l-8.8-23.4h-51.5l-8.6,23.4H622.7z M663.8,139.2h35
			l-17.5-47.2L663.8,139.2z"/>
	</defs>
	<clipPath id="SVGID_00000065772079746255482380000012066058173292873913_">
		<use xlink:href="#SVGID_1_"  style="overflow:visible;"/>
	</clipPath>
	<g style="clip-path:url(#SVGID_00000065772079746255482380000012066058173292873913_);">
		<rect x="663.8" y="92.1" class="st4" width="8.1" height="47.2"/>
		<rect x="671.9" y="92.1" class="st4" width="1.3" height="47.2"/>
		<rect x="673.3" y="92.1" class="st6" width="1.3" height="47.2"/>
		<rect x="674.6" y="92.1" class="st7" width="1.3" height="47.2"/>
		<rect x="676" y="92.1" class="st8" width="1.3" height="47.2"/>
		<rect x="677.3" y="92.1" class="st9" width="1.3" height="47.2"/>
		<rect x="678.7" y="92.1" class="st10" width="1.3" height="47.2"/>
		<rect x="680" y="92.1" class="st11" width="1.3" height="47.2"/>
		<rect x="681.4" y="92.1" class="st12" width="1.3" height="47.2"/>
		<rect x="682.8" y="92.1" class="st13" width="1.3" height="47.2"/>
		<rect x="684.1" y="92.1" class="st14" width="1.3" height="47.2"/>
		<rect x="685.5" y="92.1" class="st15" width="1.3" height="47.2"/>
		<rect x="686.8" y="92.1" class="st16" width="1.3" height="47.2"/>
		<rect x="688.2" y="92.1" class="st17" width="1.3" height="47.2"/>
		<rect x="689.5" y="92.1" class="st18" width="1.3" height="47.2"/>
		<rect x="690.9" y="92.1" class="st19" width="1.3" height="47.2"/>
		<rect x="692.2" y="92.1" class="st20" width="1.3" height="47.2"/>
		<rect x="693.6" y="92.1" class="st21" width="1.3" height="47.2"/>
		<rect x="694.9" y="92.1" class="st22" width="1.3" height="47.2"/>
		<rect x="696.3" y="92.1" class="st23" width="1.3" height="47.2"/>
		<rect x="697.6" y="92.1" class="st24" width="1.2" height="47.2"/>
		<rect x="622.8" y="68.8" class="st4" width="49.2" height="116.1"/>
		<rect x="671.9" y="68.8" class="st4" width="1.3" height="116.1"/>
		<rect x="673.3" y="68.8" class="st6" width="1.3" height="116.1"/>
		<rect x="674.6" y="68.8" class="st7" width="1.3" height="116.1"/>
		<rect x="676" y="68.8" class="st8" width="1.3" height="116.1"/>
		<rect x="677.3" y="68.8" class="st9" width="1.3" height="116.1"/>
		<rect x="678.7" y="68.8" class="st10" width="1.3" height="116.1"/>
		<rect x="680" y="68.8" class="st11" width="1.3" height="116.1"/>
		<rect x="681.4" y="68.8" class="st12" width="1.3" height="116.1"/>
		<rect x="682.8" y="68.8" class="st13" width="1.3" height="116.1"/>
		<rect x="684.1" y="68.8" class="st14" width="1.3" height="116.1"/>
		<rect x="685.5" y="68.8" class="st15" width="1.3" height="116.1"/>
		<rect x="686.8" y="68.8" class="st16" width="1.3" height="116.1"/>
		<rect x="688.2" y="68.8" class="st17" width="1.3" height="116.1"/>
		<rect x="689.5" y="68.8" class="st18" width="1.3" height="116.1"/>
		<rect x="690.9" y="68.8" class="st19" width="1.3" height="116.1"/>
		<rect x="692.2" y="68.8" class="st20" width="1.3" height="116.1"/>
		<rect x="693.6" y="68.8" class="st21" width="1.3" height="116.1"/>
		<rect x="694.9" y="68.8" class="st22" width="1.3" height="116.1"/>
		<rect x="696.3" y="68.8" class="st23" width="1.3" height="116.1"/>
		<rect x="697.6" y="68.8" class="st24" width="1.3" height="116.1"/>
		<rect x="699" y="68.8" class="st25" width="1.3" height="116.1"/>
		<rect x="700.3" y="68.8" class="st26" width="1.3" height="116.1"/>
		<rect x="701.7" y="68.8" class="st27" width="1.3" height="116.1"/>
		<rect x="703" y="68.8" class="st28" width="1.3" height="116.1"/>
		<rect x="704.4" y="68.8" class="st29" width="1.3" height="116.1"/>
		<rect x="705.8" y="68.8" class="st30" width="1.3" height="116.1"/>
		<rect x="707.1" y="68.8" class="st31" width="1.3" height="116.1"/>
		<rect x="708.5" y="68.8" class="st32" width="1.3" height="116.1"/>
		<rect x="709.8" y="68.8" class="st33" width="1.3" height="116.1"/>
		<rect x="711.2" y="68.8" class="st34" width="1.3" height="116.1"/>
		<rect x="712.5" y="68.8" class="st35" width="1.3" height="116.1"/>
		<rect x="713.9" y="68.8" class="st36" width="1.3" height="116.1"/>
		<rect x="715.2" y="68.8" class="st37" width="1.3" height="116.1"/>
		<rect x="716.6" y="68.8" class="st38" width="1.3" height="116.1"/>
		<rect x="717.9" y="68.8" class="st39" width="1.3" height="116.1"/>
		<rect x="719.3" y="68.8" class="st40" width="1.3" height="116.1"/>
		<rect x="720.6" y="68.8" class="st41" width="1.3" height="116.1"/>
		<rect x="722" y="68.8" class="st42" width="1.3" height="116.1"/>
		<rect x="723.3" y="68.8" class="st43" width="1.3" height="116.1"/>
		<rect x="724.7" y="68.8" class="st44" width="1.3" height="116.1"/>
		<rect x="726" y="68.8" class="st45" width="1.3" height="116.1"/>
		<rect x="727.4" y="68.8" class="st46" width="1.3" height="116.1"/>
		<rect x="728.8" y="68.8" class="st47" width="1.3" height="116.1"/>
		<rect x="730.1" y="68.8" class="st48" width="1.3" height="116.1"/>
		<rect x="731.5" y="68.8" class="st49" width="1.3" height="116.1"/>
		<rect x="732.8" y="68.8" class="st50" width="1.3" height="116.1"/>
		<rect x="734.2" y="68.8" class="st51" width="1.3" height="116.1"/>
		<rect x="735.5" y="68.8" class="st52" width="1.3" height="116.1"/>
		<rect x="736.9" y="68.8" class="st53" width="1.3" height="116.1"/>
		<rect x="738.2" y="68.8" class="st54" width="1.3" height="116.1"/>
		<rect x="739.6" y="68.8" class="st55" width="1" height="116.1"/>
	</g>
</g>
<g>
	<defs>
		<path id="SVGID_00000060750221247634344520000017614181487053495458_" d="M800.7,174.8h-0.3c-5.2,7.7-13.5,11.6-24.6,11.6
			s-20.2-4-27.2-12.2c-6.9-8.1-10.7-18.4-10.5-29c-0.1-10.5,3.8-20.6,10.8-28.3c7.3-8.5,16.3-12.6,27.1-12.6
			c9.9,0,17.8,3.6,23.7,10.5h0.3V64.2h23v120.7h-22.4L800.7,174.8z M781.2,125.2c-11.1,0-19.6,8.3-19.6,20
			c-0.2,5.4,1.9,10.7,5.6,14.7c7.8,7.5,20.1,7.5,27.9,0c3.8-3.9,5.8-9.2,5.6-14.7C800.7,133.5,792.3,125.2,781.2,125.2L781.2,125.2z
			"/>
	</defs>
	<clipPath id="SVGID_00000044866455189590634330000002469261207726968981_">
		<use xlink:href="#SVGID_00000060750221247634344520000017614181487053495458_"  style="overflow:visible;"/>
	</clipPath>
	<g style="clip-path:url(#SVGID_00000044866455189590634330000002469261207726968981_);">
		<rect x="761.6" y="125.2" class="st57" width="0.1" height="40.4"/>
		<rect x="761.7" y="125.2" class="st58" width="0.9" height="40.4"/>
		<rect x="762.6" y="125.2" class="st59" width="0.9" height="40.4"/>
		<rect x="763.5" y="125.2" class="st60" width="0.9" height="40.4"/>
		<rect x="764.4" y="125.2" class="st61" width="0.9" height="40.4"/>
		<rect x="765.3" y="125.2" class="st62" width="0.9" height="40.4"/>
		<rect x="766.2" y="125.2" class="st63" width="0.9" height="40.4"/>
		<rect x="767.1" y="125.2" class="st64" width="0.9" height="40.4"/>
		<rect x="768" y="125.2" class="st65" width="0.9" height="40.4"/>
		<rect x="768.9" y="125.2" class="st66" width="0.9" height="40.4"/>
		<rect x="769.8" y="125.2" class="st67" width="0.9" height="40.4"/>
		<rect x="770.7" y="125.2" class="st68" width="0.9" height="40.4"/>
		<rect x="771.6" y="125.2" class="st69" width="0.9" height="40.4"/>
		<rect x="772.5" y="125.2" class="st70" width="0.9" height="40.4"/>
		<rect x="773.5" y="125.2" class="st71" width="0.9" height="40.4"/>
		<rect x="774.3" y="125.2" class="st72" width="0.9" height="40.4"/>
		<rect x="775.2" y="125.2" class="st73" width="0.9" height="40.4"/>
		<rect x="776.2" y="125.2" class="st74" width="0.9" height="40.4"/>
		<rect x="777.1" y="125.2" class="st75" width="0.9" height="40.4"/>
		<rect x="778" y="125.2" class="st76" width="0.9" height="40.4"/>
		<rect x="778.9" y="125.2" class="st77" width="0.9" height="40.4"/>
		<rect x="779.8" y="125.2" class="st78" width="0.9" height="40.4"/>
		<rect x="780.7" y="125.2" class="st79" width="0.9" height="40.4"/>
		<rect x="781.6" y="125.2" class="st80" width="0.9" height="40.4"/>
		<rect x="782.5" y="125.2" class="st81" width="0.9" height="40.4"/>
		<rect x="783.4" y="125.2" class="st82" width="0.9" height="40.4"/>
		<rect x="784.3" y="125.2" class="st83" width="0.9" height="40.4"/>
		<rect x="785.2" y="125.2" class="st84" width="0.9" height="40.4"/>
		<rect x="786.1" y="125.2" class="st85" width="0.9" height="40.4"/>
		<rect x="787" y="125.2" class="st86" width="0.9" height="40.4"/>
		<rect x="787.9" y="125.2" class="st87" width="0.9" height="40.4"/>
		<rect x="788.8" y="125.2" class="st88" width="0.9" height="40.4"/>
		<rect x="789.7" y="125.2" class="st89" width="0.9" height="40.4"/>
		<rect x="790.6" y="125.2" class="st90" width="0.9" height="40.4"/>
		<rect x="791.5" y="125.2" class="st91" width="0.9" height="40.4"/>
		<rect x="792.4" y="125.2" class="st92" width="0.9" height="40.4"/>
		<rect x="793.3" y="125.2" class="st93" width="0.9" height="40.4"/>
		<rect x="794.2" y="125.2" class="st94" width="0.9" height="40.4"/>
		<rect x="795.1" y="125.2" class="st95" width="0.9" height="40.4"/>
		<rect x="796" y="125.2" class="st96" width="0.9" height="40.4"/>
		<rect x="797" y="125.2" class="st97" width="0.9" height="40.4"/>
		<rect x="797.9" y="125.2" class="st98" width="0.9" height="40.4"/>
		<rect x="798.8" y="125.2" class="st99" width="0.9" height="40.4"/>
		<rect x="799.7" y="125.2" class="st100" width="0.9" height="40.4"/>
		<rect x="800.6" y="125.2" class="st101" width="0.2" height="40.4"/>
		<rect x="738.2" y="64.2" class="st53" width="0" height="122.2"/>
		<rect x="738.2" y="64.2" class="st54" width="1.3" height="122.2"/>
		<rect x="739.6" y="64.2" class="st55" width="1.3" height="122.2"/>
		<rect x="740.9" y="64.2" class="st102" width="1.3" height="122.2"/>
		<rect x="742.3" y="64.2" class="st103" width="1.3" height="122.2"/>
		<rect x="743.6" y="64.2" class="st104" width="1.3" height="122.2"/>
		<rect x="745" y="64.2" class="st105" width="1.3" height="122.2"/>
		<rect x="746.3" y="64.2" class="st106" width="1.3" height="122.2"/>
		<rect x="747.7" y="64.2" class="st3" width="1.3" height="122.2"/>
		<rect x="749" y="64.2" class="st3" width="0.9" height="122.2"/>
		<rect x="749.9" y="64.2" class="st107" width="0.9" height="122.2"/>
		<rect x="750.8" y="64.2" class="st108" width="0.9" height="122.2"/>
		<rect x="751.8" y="64.2" class="st109" width="0.9" height="122.2"/>
		<rect x="752.7" y="64.2" class="st110" width="0.9" height="122.2"/>
		<rect x="753.6" y="64.2" class="st111" width="0.9" height="122.2"/>
		<rect x="754.5" y="64.2" class="st112" width="0.9" height="122.2"/>
		<rect x="755.4" y="64.2" class="st113" width="0.9" height="122.2"/>
		<rect x="756.3" y="64.2" class="st114" width="0.9" height="122.2"/>
		<rect x="757.2" y="64.2" class="st115" width="0.9" height="122.2"/>
		<rect x="758.1" y="64.2" class="st116" width="0.9" height="122.2"/>
		<rect x="759" y="64.2" class="st117" width="0.9" height="122.2"/>
		<rect x="759.9" y="64.2" class="st118" width="0.9" height="122.2"/>
		<rect x="760.8" y="64.2" class="st57" width="0.9" height="122.2"/>
		<rect x="761.7" y="64.2" class="st58" width="0.9" height="122.2"/>
		<rect x="762.6" y="64.2" class="st59" width="0.9" height="122.2"/>
		<rect x="763.5" y="64.2" class="st60" width="0.9" height="122.2"/>
		<rect x="764.4" y="64.2" class="st61" width="0.9" height="122.2"/>
		<rect x="765.3" y="64.2" class="st62" width="0.9" height="122.2"/>
		<rect x="766.2" y="64.2" class="st63" width="0.9" height="122.2"/>
		<rect x="767.1" y="64.2" class="st64" width="0.9" height="122.2"/>
		<rect x="768" y="64.2" class="st65" width="0.9" height="122.2"/>
		<rect x="768.9" y="64.2" class="st66" width="0.9" height="122.2"/>
		<rect x="769.8" y="64.2" class="st67" width="0.9" height="122.2"/>
		<rect x="770.7" y="64.2" class="st68" width="0.9" height="122.2"/>
		<rect x="771.6" y="64.2" class="st69" width="0.9" height="122.2"/>
		<rect x="772.5" y="64.2" class="st70" width="0.9" height="122.2"/>
		<rect x="773.5" y="64.2" class="st71" width="0.9" height="122.2"/>
		<rect x="774.3" y="64.2" class="st72" width="0.9" height="122.2"/>
		<rect x="775.2" y="64.2" class="st73" width="0.9" height="122.2"/>
		<rect x="776.2" y="64.2" class="st74" width="0.9" height="122.2"/>
		<rect x="777.1" y="64.2" class="st75" width="0.9" height="122.2"/>
		<rect x="778" y="64.2" class="st76" width="0.9" height="122.2"/>
		<rect x="778.9" y="64.2" class="st77" width="0.9" height="122.2"/>
		<rect x="779.8" y="64.2" class="st78" width="0.9" height="122.2"/>
		<rect x="780.7" y="64.2" class="st79" width="0.9" height="122.2"/>
		<rect x="781.6" y="64.2" class="st80" width="0.9" height="122.2"/>
		<rect x="782.5" y="64.2" class="st81" width="0.9" height="122.2"/>
		<rect x="783.4" y="64.2" class="st82" width="0.9" height="122.2"/>
		<rect x="784.3" y="64.2" class="st83" width="0.9" height="122.2"/>
		<rect x="785.2" y="64.2" class="st84" width="0.9" height="122.2"/>
		<rect x="786.1" y="64.2" class="st85" width="0.9" height="122.2"/>
		<rect x="787" y="64.2" class="st86" width="0.9" height="122.2"/>
		<rect x="787.9" y="64.2" class="st87" width="0.9" height="122.2"/>
		<rect x="788.8" y="64.2" class="st88" width="0.9" height="122.2"/>
		<rect x="789.7" y="64.2" class="st89" width="0.9" height="122.2"/>
		<rect x="790.6" y="64.2" class="st90" width="0.9" height="122.2"/>
		<rect x="791.5" y="64.2" class="st91" width="0.9" height="122.2"/>
		<rect x="792.4" y="64.2" class="st92" width="0.9" height="122.2"/>
		<rect x="793.3" y="64.2" class="st93" width="0.9" height="122.2"/>
		<rect x="794.2" y="64.2" class="st94" width="0.9" height="122.2"/>
		<rect x="795.1" y="64.2" class="st95" width="0.9" height="122.2"/>
		<rect x="796" y="64.2" class="st96" width="0.9" height="122.2"/>
		<rect x="797" y="64.2" class="st97" width="0.9" height="122.2"/>
		<rect x="797.9" y="64.2" class="st98" width="0.9" height="122.2"/>
		<rect x="798.8" y="64.2" class="st99" width="0.9" height="122.2"/>
		<rect x="799.7" y="64.2" class="st100" width="0.9" height="122.2"/>
		<rect x="800.6" y="64.2" class="st101" width="0.9" height="122.2"/>
		<rect x="801.5" y="64.2" class="st119" width="0.9" height="122.2"/>
		<rect x="802.4" y="64.2" class="st120" width="0.9" height="122.2"/>
		<rect x="803.3" y="64.2" class="st121" width="0.9" height="122.2"/>
		<rect x="804.2" y="64.2" class="st122" width="0.9" height="122.2"/>
		<rect x="805.1" y="64.2" class="st123" width="0.9" height="122.2"/>
		<rect x="806" y="64.2" class="st124" width="0.9" height="122.2"/>
		<rect x="806.9" y="64.2" class="st125" width="0.9" height="122.2"/>
		<rect x="807.8" y="64.2" class="st126" width="0.9" height="122.2"/>
		<rect x="808.7" y="64.2" class="st127" width="0.9" height="122.2"/>
		<rect x="809.6" y="64.2" class="st128" width="0.9" height="122.2"/>
		<rect x="810.5" y="64.2" class="st129" width="0.9" height="122.2"/>
		<rect x="811.4" y="64.2" class="st130" width="0.9" height="122.2"/>
		<rect x="812.3" y="64.2" class="st131" width="0.9" height="122.2"/>
		<rect x="813.2" y="64.2" class="st132" width="0.9" height="122.2"/>
		<rect x="814.1" y="64.2" class="st133" width="0.9" height="122.2"/>
		<rect x="815" y="64.2" class="st134" width="0.9" height="122.2"/>
		<rect x="815.9" y="64.2" class="st2" width="0.9" height="122.2"/>
		<rect x="816.8" y="64.2" class="st2" width="6.3" height="122.2"/>
	</g>
</g>
<g>
	<defs>
		<path id="SVGID_00000158723369914346504000000007938159460243622836_" d="M865.2,186.7c-16.6,0-28.2-6.1-34.6-18.2l17.1-10.1
			c3.3,6.4,9.2,9.6,17.8,9.6c5.8,0,9.7-2.7,9.7-5.8s-2.5-5.5-12.6-7.7c-18.8-4.2-28.2-12.8-28.2-25.7c-0.1-7.1,3.2-13.8,8.9-18
			c6.1-4.8,13.7-7.3,21.5-7.1c14.7,0,25.4,6.4,30.6,16l-16.8,10c-3-5-7.7-7.6-14.4-7.6c-4.8,0-8.3,2.7-8.3,5.8
			c0,3.4,3.4,5.8,10.4,7.3c20,4.2,30.6,12,30.6,25.8C896.8,176.3,884.8,186.7,865.2,186.7L865.2,186.7z"/>
	</defs>
	<clipPath id="SVGID_00000031896383959707111600000008666009249440115091_">
		<use xlink:href="#SVGID_00000158723369914346504000000007938159460243622836_"  style="overflow:visible;"/>
	</clipPath>
	<g style="clip-path:url(#SVGID_00000031896383959707111600000008666009249440115091_);">
		<rect x="830.7" y="103.8" class="st2" width="66.2" height="82.9"/>
	</g>
</g>
</svg>
