<svg xmlns="http://www.w3.org/2000/svg" xmlns:xlink="http://www.w3.org/1999/xlink" viewBox="0 0 896.87 268.48"><defs><style>.cls-1,.cls-6{font-size:148.33px;}.cls-1{fill:#1b2c3b;font-family:Gordita-Regular, Gordita;letter-spacing:-0.08em;}.cls-2{fill:url(#linear-gradient);}.cls-3,.cls-8{fill:#3d53fc;}.cls-4,.cls-7{fill:#0033b1;}.cls-5,.cls-6{fill:#051678;}.cls-6{font-family:Gordita-Bold, Gordita;font-weight:700;letter-spacing:-0.05em;}.cls-7,.cls-8{letter-spacing:-0.05em;}.cls-9{fill:url(#linear-gradient-21);}</style><linearGradient id="linear-gradient" x1="530.39" y1="222.35" x2="895.12" y2="222.35" gradientUnits="userSpaceOnUse"><stop offset="0" stop-color="#051678"/><stop offset="1" stop-color="#3d53fc"/></linearGradient><linearGradient id="linear-gradient-21" x1="622.76" y1="125.46" x2="832.36" y2="125.46" gradientUnits="userSpaceOnUse"><stop offset="0.23" stop-color="#051678"/><stop offset="0.6" stop-color="#0033b1"/><stop offset="0.93" stop-color="#3d53fc"/></linearGradient></defs><g id="Camada_2" data-name="Camada 2"><g id="Layer_1" data-name="Layer 1"><text class="cls-1" transform="translate(186.79 184.27)">Simple</text><path class="cls-2" d="M538.35,216.59a4.7,4.7,0,0,0-4.54,2.91l-3.11-1.78c1.44-3.11,4-4.64,7.75-4.64,3.42,0,5.71,1.23,6.83,3.72a8,8,0,0,1,.62,3.28v11.61h-4v-2.5a5.76,5.76,0,0,1-5.36,2.81,6.56,6.56,0,0,1-4.4-1.51,4.83,4.83,0,0,1-1.75-3.86v-.2c0-4.24,4.38-5.57,7.59-5.57h2.25c1.13,0,1.71-.51,1.71-1.53C541.94,217.82,540.64,216.59,538.35,216.59Zm3.55,7.14H538a4.77,4.77,0,0,0-2.43.68,2.09,2.09,0,0,0-1.09,1.85c0,1.5,1.16,2.49,2.9,2.49a4.19,4.19,0,0,0,4.54-4.44Z"/><path class="cls-2" d="M551.36,216a8.4,8.4,0,0,1,6.59-2.87,8,8,0,0,1,3.21.75,5.39,5.39,0,0,1,2.7,2.19V203.89h4.06v27.8h-4v-2.84a5.72,5.72,0,0,1-2.83,2.36,8.66,8.66,0,0,1-3.28.75,8.31,8.31,0,0,1-6.42-2.8,9.54,9.54,0,0,1-2.56-6.62A9.67,9.67,0,0,1,551.36,216Zm3.14,2.46a6.34,6.34,0,0,0,0,8.19,5.2,5.2,0,0,0,4,1.64,5,5,0,0,0,3.92-1.64,6.21,6.21,0,0,0,0-8.19,5,5,0,0,0-3.92-1.68A5.13,5.13,0,0,0,554.5,218.44Z"/><path class="cls-2" d="M574.62,213.45,580,226.94l5.36-13.49h4.27L582,231.69h-4.06l-7.72-18.24Z"/><path class="cls-2" d="M594.22,223.76a4.48,4.48,0,0,0,1.64,3.42,5.56,5.56,0,0,0,3.69,1.33,5.12,5.12,0,0,0,4.91-2.83l2.94,1.94a8.63,8.63,0,0,1-7.78,4.41,9.59,9.59,0,0,1-6.94-16.19,8.67,8.67,0,0,1,6.56-2.76,8.33,8.33,0,0,1,6.52,2.59,9.78,9.78,0,0,1,2.36,6.83,11.86,11.86,0,0,1-.07,1.26Zm.21-3.07H604c-.14-2.56-2.15-4.13-4.75-4.13A4.71,4.71,0,0,0,594.43,220.69Z"/><path class="cls-2" d="M621.23,217.55a5.7,5.7,0,0,0-1.16-.1c-3.11,0-4.74,1.81-4.74,5v9.26h-4.07V213.45h4v2.9a5.43,5.43,0,0,1,5-3.07,4,4,0,0,1,1,.1Z"/><path class="cls-2" d="M629.12,217.11v8c0,2.19,1.06,3,3.14,3a5.91,5.91,0,0,0,1.3-.13v3.45a6.37,6.37,0,0,1-2.19.37c-4,0-6.31-2.11-6.31-6.08v-8.7h-3.35v-3.66h3.35v-5.63h4.06v5.63h4.47v3.66Z"/><path class="cls-2" d="M637,205.67a2.54,2.54,0,0,1,3.75,0,2.65,2.65,0,1,1-3.75,0Zm3.92,26h-4.06V213.45h4.06Z"/><path class="cls-2" d="M643.67,227.42l3.18-1.78a4.69,4.69,0,0,0,4.37,2.94c1.53,0,2.86-.79,2.86-2,0-1.06-1.26-1.88-3.75-2.4a8.32,8.32,0,0,1-4.54-2.18,4.68,4.68,0,0,1-1.3-3.31,4.91,4.91,0,0,1,2-4,7.2,7.2,0,0,1,4.64-1.57c3.28,0,5.57,1.36,6.83,4.09L654.8,219a4,4,0,0,0-3.82-2.46c-1.27,0-2.56.79-2.56,1.78,0,1.19,1,1.81,3.38,2.32,4.13.92,6.32,2.9,6.32,5.74a5.08,5.08,0,0,1-1.92,4.09,7.49,7.49,0,0,1-5,1.58C647.6,232,645.07,230.46,643.67,227.42Z"/><path class="cls-2" d="M661.56,205.67a2.55,2.55,0,0,1,3.76,0,2.66,2.66,0,1,1-3.76,0Zm3.93,26h-4.06V213.45h4.06Z"/><path class="cls-2" d="M682.19,231.69V221.48c0-2.73-1.33-4.54-4-4.54s-4.2,1.84-4.2,4.6v10.15H669.9V213.45h4v2.46a6.59,6.59,0,0,1,5.56-2.83c4.48,0,6.83,3,6.83,7.37v11.24Z"/><path class="cls-2" d="M691.72,229.06a9.44,9.44,0,0,1-2.49-6.56,9.75,9.75,0,0,1,2.45-6.49,8.32,8.32,0,0,1,6.56-2.87,8.07,8.07,0,0,1,3.21.79,5.91,5.91,0,0,1,2.73,2.29v-2.77h4v18a9,9,0,0,1-2.62,6.83,9.56,9.56,0,0,1-6.9,2.53c-4.44,0-7.52-1.85-9.19-5.54l3.38-1.94c1.27,2.56,3.18,3.86,5.74,3.86a5.16,5.16,0,0,0,5.53-5.57v-2.87a5.78,5.78,0,0,1-2.76,2.32,8.24,8.24,0,0,1-9.6-2Zm10.93-10.66a5.53,5.53,0,0,0-7.86,0,5.73,5.73,0,0,0-1.5,4,6,6,0,0,0,1.5,4.1,5.15,5.15,0,0,0,3.93,1.64,5,5,0,0,0,3.89-1.64,5.85,5.85,0,0,0,1.54-4.1A5.8,5.8,0,0,0,702.65,218.4Z"/><path class="cls-2" d="M732.56,231.69V221.44c0-2.73-1.23-4.54-3.93-4.54-2.46,0-4,1.88-4,4.64v10.15h-4.06V213.45h4v2.46A6.53,6.53,0,0,1,730,213a5.93,5.93,0,0,1,5.63,3,7.88,7.88,0,0,1,6.35-3c4.41,0,6.63,3,6.63,7.38v11.27h-4.07V221.41c0-2.77-1.19-4.51-3.89-4.51-2.49,0-4,1.85-4,4.61v10.18Z"/><path class="cls-2" d="M759.64,216.59a4.7,4.7,0,0,0-4.54,2.91L752,217.72c1.44-3.11,4-4.64,7.75-4.64,3.42,0,5.71,1.23,6.84,3.72a8,8,0,0,1,.61,3.28v11.61h-4v-2.5a5.76,5.76,0,0,1-5.36,2.81,6.56,6.56,0,0,1-4.4-1.51,4.85,4.85,0,0,1-1.74-3.86v-.2c0-4.24,4.37-5.57,7.58-5.57h2.25c1.13,0,1.71-.51,1.71-1.53C763.23,217.82,761.93,216.59,759.64,216.59Zm3.55,7.14h-3.92a4.77,4.77,0,0,0-2.43.68,2.09,2.09,0,0,0-1.09,1.85c0,1.5,1.16,2.49,2.9,2.49a4.19,4.19,0,0,0,4.54-4.44Z"/><path class="cls-2" d="M772.65,216a8.4,8.4,0,0,1,6.59-2.87,8,8,0,0,1,3.21.75,5.39,5.39,0,0,1,2.7,2.19V203.89h4.07v27.8h-4v-2.84a5.67,5.67,0,0,1-2.83,2.36,8.66,8.66,0,0,1-3.28.75,8.31,8.31,0,0,1-6.42-2.8,9.54,9.54,0,0,1-2.56-6.62A9.67,9.67,0,0,1,772.65,216Zm3.15,2.46a6.31,6.31,0,0,0,0,8.19,5.16,5.16,0,0,0,4,1.64,5,5,0,0,0,3.92-1.64,6.21,6.21,0,0,0,0-8.19,5,5,0,0,0-3.92-1.68A5.09,5.09,0,0,0,775.8,218.44Z"/><path class="cls-2" d="M796.59,223.76a4.51,4.51,0,0,0,1.64,3.42,5.56,5.56,0,0,0,3.69,1.33,5.14,5.14,0,0,0,4.92-2.83l2.94,1.94A8.65,8.65,0,0,1,802,232a9.37,9.37,0,0,1-6.83-2.7,9.27,9.27,0,0,1-2.73-6.79,9.42,9.42,0,0,1,2.63-6.7,8.63,8.63,0,0,1,6.55-2.76,8.35,8.35,0,0,1,6.53,2.59,9.77,9.77,0,0,1,2.35,6.83,9.66,9.66,0,0,1-.07,1.26Zm.21-3.07h9.56c-.14-2.56-2.15-4.13-4.75-4.13A4.71,4.71,0,0,0,796.8,220.69Z"/><path class="cls-2" d="M831.6,217.55a5.76,5.76,0,0,0-1.16-.1c-3.11,0-4.75,1.81-4.75,5v9.26h-4.06V213.45h4v2.9a5.42,5.42,0,0,1,5-3.07,4.06,4.06,0,0,1,1,.1Z"/><path class="cls-2" d="M834.16,205.67a2.54,2.54,0,0,1,3.75,0,2.65,2.65,0,1,1-3.75,0Zm3.92,26H834V213.45h4.06Z"/><path class="cls-2" d="M843.72,229.06a9.44,9.44,0,0,1-2.49-6.56,9.71,9.71,0,0,1,2.46-6.49,8.28,8.28,0,0,1,6.55-2.87,8.07,8.07,0,0,1,3.21.79,5.91,5.91,0,0,1,2.73,2.29v-2.77h4v18a9.05,9.05,0,0,1-2.63,6.83,9.56,9.56,0,0,1-6.9,2.53q-6.66,0-9.19-5.54l3.38-1.94c1.27,2.56,3.18,3.86,5.74,3.86a5.16,5.16,0,0,0,5.53-5.57v-2.87a5.78,5.78,0,0,1-2.76,2.32,8.24,8.24,0,0,1-9.6-2Zm10.93-10.66a5.53,5.53,0,0,0-7.86,0,5.73,5.73,0,0,0-1.5,4,6,6,0,0,0,1.5,4.1,5.16,5.16,0,0,0,3.93,1.64,5,5,0,0,0,3.89-1.64,5.85,5.85,0,0,0,1.54-4.1A5.8,5.8,0,0,0,854.65,218.4Z"/><path class="cls-2" d="M876.88,231.69V221.48c0-2.73-1.33-4.54-4-4.54s-4.2,1.84-4.2,4.6v10.15h-4.07v-27.8h4.07v11.88a6.59,6.59,0,0,1,5.46-2.69c4.48,0,6.83,3,6.83,7.37v11.24Z"/><path class="cls-2" d="M890.64,217.11v8c0,2.19,1.06,3,3.14,3a5.91,5.91,0,0,0,1.3-.13v3.45a6.35,6.35,0,0,1-2.18.37c-4,0-6.32-2.11-6.32-6.08v-8.7h-3.35v-3.66h3.35v-5.63h4.06v5.63h4.48v3.66Z"/><path class="cls-3" d="M135,145.13,3.35,200.86a5.49,5.49,0,0,0-3.35,5V263A5.48,5.48,0,0,0,7.62,268l133-56.33a5.49,5.49,0,0,0,3.35-5.05V136.1C142.05,140.37,138.65,143.09,135,145.13Z"/><path class="cls-4" d="M131.12,122.25l-119-50.41C7.66,68.91,2.91,65.64,0,59.3v75.46a5.36,5.36,0,0,0,3.27,4.93l52.88,22.39a5.3,5.3,0,0,0,4.17,0l70.8-30A5.35,5.35,0,0,0,131.12,122.25Z"/><path class="cls-5" d="M144,5.35V66.18a5.34,5.34,0,0,1-3.26,4.92L93.93,90.94a5.39,5.39,0,0,1-4.17,0L17.92,60.51a5.33,5.33,0,0,1-3.26-4.92h0a5.35,5.35,0,0,1,3.26-4.92L136.59.43A5.35,5.35,0,0,1,144,5.35Z"/><text class="cls-6" transform="translate(622.91 184.94)">A<tspan class="cls-7" x="109.32" y="0">d</tspan><tspan class="cls-8" x="203.66" y="0">s</tspan></text><path class="cls-9" d="M622.76,184.94,667.11,68.8H696l44.49,116.14H715.76L707,161.5H655.54l-8.6,23.44Zm41.09-45.69h35l-17.5-47.17Z"/><path class="cls-9" d="M800.76,174.85h-.3c-5.19,7.72-13.5,11.57-24.62,11.57s-20.18-4-27.15-12.16a43.56,43.56,0,0,1-10.53-29.07A41.86,41.86,0,0,1,749,116.85c7.27-8.45,16.32-12.6,27.14-12.6,9.94,0,17.8,3.56,23.74,10.53h.29V64.2h23V184.94H800.76Zm-19.58-49.69c-11.13,0-19.58,8.31-19.58,20a20.41,20.41,0,0,0,5.63,14.68,20.06,20.06,0,0,0,27.89,0,20.38,20.38,0,0,0,5.64-14.68C800.76,133.47,792.3,125.16,781.18,125.16Z"/><path class="cls-9" d="M865.28,186.72c-16.61,0-28.18-6.08-34.56-18.25l17-10.08c3.27,6.38,9.2,9.64,17.8,9.64,5.79,0,9.65-2.67,9.65-5.79s-2.53-5.48-12.61-7.71c-18.84-4.15-28.18-12.76-28.18-25.66a21.78,21.78,0,0,1,8.9-18,33.8,33.8,0,0,1,21.5-7.12c14.69,0,25.37,6.38,30.56,16l-16.76,9.94c-3-5-7.72-7.57-14.39-7.57-4.75,0-8.31,2.67-8.31,5.79,0,3.41,3.42,5.78,10.39,7.27,20,4.15,30.55,12,30.55,25.81C896.87,176.33,884.86,186.72,865.28,186.72Z"/></g></g></svg>