<svg id="Camada_1" data-name="Camada 1" xmlns="http://www.w3.org/2000/svg" viewBox="0 0 30.66 30.36"><defs><style>.cls-1{fill:none;stroke:#3d53fc;stroke-linecap:round;stroke-linejoin:round;stroke-width:4px;}.cls-2{fill:#3d53fc;}.cls-3{fill:#fff;}</style></defs><rect class="cls-1" x="2" y="2" width="14.69" height="14.69"/><path class="cls-2" d="M211,60.67a3.64,3.64,0,0,1-2.51-1L204.52,56l-1.35,1.89a3,3,0,0,1-2.42,1.25A3,3,0,0,1,198,57.2l-5.37-14.43a3,3,0,0,1,2.78-4,3,3,0,0,1,1,.18L211,44.16a3,3,0,0,1,.64,5.28l-1.88,1.26,3.77,3.68A3.67,3.67,0,0,1,211,60.67Z" transform="translate(-185.96 -32.31)"/><path class="cls-3" d="M195.37,40.75a1.06,1.06,0,0,1,.34.06l14.6,5.24a1,1,0,0,1,.21,1.72l-2.94,2a1,1,0,0,0-.14,1.51l4.68,4.56a1.67,1.67,0,0,1,0,2.39h0a1.68,1.68,0,0,1-2.31,0L205,53.74a1,1,0,0,0-.67-.27,1,1,0,0,0-.8.41l-2,2.85a1,1,0,0,1-.79.41,1,1,0,0,1-.92-.64l-5.37-14.43a1,1,0,0,1,.91-1.32m0-4h0a5,5,0,0,0-4.66,6.71l5.37,14.44a5,5,0,0,0,8.71,1.16l0,0,2.25,2.12a5.68,5.68,0,0,0,7.83-.07,5.66,5.66,0,0,0,0-8.12l-2-2a5,5,0,0,0-1.25-8.71l-14.6-5.23a4.94,4.94,0,0,0-1.69-.3Z" transform="translate(-185.96 -32.31)"/></svg>