<svg xmlns="http://www.w3.org/2000/svg" viewBox="0 0 32.11 32.12"><defs><style>.cls-1,.cls-3,.cls-4{fill:none;stroke:#3d53fc;stroke-miterlimit:10;stroke-width:3px;}.cls-1,.cls-4{stroke-linecap:square;}.cls-2{fill:#3d53fc;}.cls-4{stroke-dasharray:0.02 5.14;}</style></defs><g id="Camada_2" data-name="Camada 2"><g id="Camada_1-2" data-name="Camada 1"><line class="cls-1" x1="18.66" y1="2.99" x2="10.68" y2="2.99"/><polygon class="cls-2" points="17.78 0 22.96 2.99 17.78 5.98 17.78 0"/><polygon class="cls-2" points="11.56 0 6.38 2.99 11.56 5.98 11.56 0"/><line class="cls-1" x1="29.12" y1="21.44" x2="29.12" y2="13.46"/><polygon class="cls-2" points="32.11 20.57 29.12 25.75 26.13 20.57 32.11 20.57"/><polygon class="cls-2" points="32.11 14.34 29.12 9.16 26.13 14.34 32.11 14.34"/><rect class="cls-3" x="7.2" y="9.99" width="14.93" height="14.93"/><line class="cls-1" x1="22.14" y1="30.62" x2="22.13" y2="30.62"/><line class="cls-4" x1="16.99" y1="30.62" x2="4.08" y2="30.62"/><polyline class="cls-1" points="1.51 30.62 1.5 30.62 1.5 30.61"/><line class="cls-4" x1="1.5" y1="25.48" x2="1.5" y2="12.57"/><line class="cls-1" x1="1.5" y1="10" x2="1.5" y2="9.99"/></g></g></svg>