<svg id="Camada_1" data-name="Camada 1" xmlns="http://www.w3.org/2000/svg" viewBox="0 0 26.51 26.51"><defs><style>.cls-1{fill:#3d53fc;}.cls-2{fill:#fff;}</style></defs><path class="cls-1" d="M298,34.69l-3.42,1.54a.65.65,0,0,1-.88-.36l-1.38-3.47a.42.42,0,0,0-.33-.26,13.27,13.27,0,0,0-3.39,0,.42.42,0,0,0-.33.26l-1.22,3.25c-.23.62-.63.78-1,.63l-3.44-1.48a.41.41,0,0,0-.41.05,13.35,13.35,0,0,0-2.38,2.43.38.38,0,0,0,0,.4l1.13,2.5a1.45,1.45,0,0,1-.64,2.08l-2.78,1.11a.41.41,0,0,0-.26.32,13.74,13.74,0,0,0,0,3.39.42.42,0,0,0,.26.33l3.51,1.32a.66.66,0,0,1,.37.88L280,53.08a.41.41,0,0,0,0,.41,13.29,13.29,0,0,0,2.42,2.38.4.4,0,0,0,.41,0l3.42-1.54a.65.65,0,0,1,.88.36l1.39,3.47a.41.41,0,0,0,.32.26,13.35,13.35,0,0,0,3.4,0,.41.41,0,0,0,.32-.26l1.23-3.25c.23-.61.63-.78,1-.63l3.44,1.48a.4.4,0,0,0,.41-.05A12.73,12.73,0,0,0,301,53.29a.39.39,0,0,0,.05-.4l-1.14-2.5a1.46,1.46,0,0,1,.65-2.08l2.78-1.1a.45.45,0,0,0,.25-.33,12.83,12.83,0,0,0,0-3.39.41.41,0,0,0-.26-.33l-3.5-1.32a.66.66,0,0,1-.38-.88l1.48-3.44a.41.41,0,0,0-.05-.41,13.29,13.29,0,0,0-2.42-2.38A.4.4,0,0,0,298,34.69Z" transform="translate(-277.2 -32.05)"/><circle class="cls-1" cx="13.25" cy="13.25" r="10.7"/><circle class="cls-2" cx="13.25" cy="13.25" r="5.31"/></svg>