<svg id="Camada_1" data-name="Camada 1" xmlns="http://www.w3.org/2000/svg" viewBox="0 0 10.94 10.94"><defs><style>.cls-1{fill:#3d53fc;}.cls-2{fill:#fff;}</style></defs><path class="cls-1" d="M293.58,57.56l-1.41.64a.28.28,0,0,1-.36-.15l-.57-1.44a.19.19,0,0,0-.14-.1,5.47,5.47,0,0,0-1.4,0,.16.16,0,0,0-.13.11L289.06,58c-.09.25-.26.32-.4.26l-1.42-.61a.15.15,0,0,0-.17,0,5.46,5.46,0,0,0-1,1,.17.17,0,0,0,0,.17l.47,1a.59.59,0,0,1-.27.86l-1.14.45a.19.19,0,0,0-.11.14,5.47,5.47,0,0,0,0,1.4.15.15,0,0,0,.1.13l1.45.55a.27.27,0,0,1,.15.36l-.61,1.42a.21.21,0,0,0,0,.17,5.79,5.79,0,0,0,1,1,.17.17,0,0,0,.17,0l1.41-.64a.26.26,0,0,1,.36.15l.58,1.43a.16.16,0,0,0,.13.11,6,6,0,0,0,1.4,0,.16.16,0,0,0,.13-.11l.51-1.34c.1-.26.26-.32.4-.26l1.42.61a.17.17,0,0,0,.17,0,5.45,5.45,0,0,0,1-1,.15.15,0,0,0,0-.17l-.47-1a.61.61,0,0,1,.27-.86l1.15-.45a.21.21,0,0,0,.1-.14,5.47,5.47,0,0,0,0-1.4.16.16,0,0,0-.11-.13l-1.44-.55a.27.27,0,0,1-.16-.36l.61-1.42a.15.15,0,0,0,0-.17,5.46,5.46,0,0,0-1-1A.15.15,0,0,0,293.58,57.56Z" transform="translate(-284.98 -56.47)"/><circle class="cls-1" cx="5.47" cy="5.47" r="4.57"/><circle class="cls-2" cx="5.47" cy="5.47" r="1.52"/></svg>