<svg id="Camada_1" data-name="Camada 1" xmlns="http://www.w3.org/2000/svg" viewBox="0 0 26.32 30.43"><defs><style>.cls-1{fill:#3d53fc;}</style></defs><path class="cls-1" d="M248.63,29.38l-12,10.76a1.13,1.13,0,0,0-.38.85V58.38a1.15,1.15,0,0,0,1.15,1.14h7.31a1.15,1.15,0,0,0,1.15-1.14V48.89A1.14,1.14,0,0,1,247,47.75h4.84A1.14,1.14,0,0,1,253,48.89v9.49a1.14,1.14,0,0,0,1.14,1.14h7.32a1.14,1.14,0,0,0,1.14-1.14V41a1.13,1.13,0,0,0-.38-.85l-12-10.76A1.16,1.16,0,0,0,248.63,29.38Z" transform="translate(-236.22 -29.09)"/></svg>