<svg id="Camada_1" data-name="Camada 1" xmlns="http://www.w3.org/2000/svg" viewBox="0 0 19.23 34.74"><defs><style>.cls-1{fill:none;stroke:#3d53fc;stroke-miterlimit:10;stroke-width:4px;}</style></defs><path class="cls-1" d="M164.74,35.85h-8.12l-2,.12a5.51,5.51,0,0,0-5.15,5.51h0a5.51,5.51,0,0,0,5.15,5.5l2,.13h1.11" transform="translate(-147.51 -29.74)"/><path class="cls-1" d="M149.51,58.37h8.12l2-.13a5.51,5.51,0,0,0,5.16-5.5h0a5.51,5.51,0,0,0-5.16-5.5l-2-.13" transform="translate(-147.51 -29.74)"/><line class="cls-1" x1="9.62" y1="9.9" x2="9.62" y2="28.03"/><line class="cls-1" x1="9.62" y1="32.4" x2="9.62" y2="34.74"/><line class="cls-1" x1="9.62" x2="9.62" y2="4.62"/></svg>