<svg id="Camada_1" data-name="Camada 1" xmlns="http://www.w3.org/2000/svg" viewBox="0 0 18.58 33.25"><defs><style>.cls-1{fill:none;stroke:#3d53fc;stroke-miterlimit:10;stroke-width:4px;}</style></defs><path class="cls-1" d="M143.06,37.07h-7.77l-1.87.13a5.27,5.27,0,0,0-4.94,5.26h0a5.28,5.28,0,0,0,4.94,5.27l1.87.12h1.06" transform="translate(-126.48 -31.23)"/><path class="cls-1" d="M128.48,58.63h7.78l1.87-.12a5.28,5.28,0,0,0,4.93-5.27h0A5.27,5.27,0,0,0,138.13,48l-1.87-.13" transform="translate(-126.48 -31.23)"/><line class="cls-1" x1="9.29" y1="5.84" x2="9.29" y2="32.13"/><line class="cls-1" x1="9.29" y1="31.01" x2="9.29" y2="33.25"/><line class="cls-1" x1="9.29" x2="9.29" y2="4.42"/></svg>