<svg xmlns="http://www.w3.org/2000/svg" viewBox="0 0 22.09 21.67"><defs><style>.cls-1{fill:#3d53fc;}</style></defs><g id="Camada_2" data-name="Camada 2"><g id="Camada_1-2" data-name="Camada 1"><path class="cls-1" d="M12.63,21.67V20.46c2.06-.29,2.06-.65,1.6-2.05-.33-1-.85-2.45-1.34-3.76H6.53c-.36,1-.82,2.25-1.15,3.27-.68,2,.1,2.31,2.68,2.54v1.21H0V20.46c2.06-.26,2.58-.55,3.69-3.29L10.48.29,12,0c2.09,5.68,4.31,11.49,6.43,16.94,1.21,3,1.5,3.26,3.62,3.52v1.21ZM9.76,6.07C8.81,8.42,7.9,10.61,7.08,13h5.19Z"/></g></g></svg>