<svg id="Camada_1" data-name="Camada 1" xmlns="http://www.w3.org/2000/svg" viewBox="0 0 18.15 21.5"><defs><style>.cls-1{fill:#3d53fc;}</style></defs><path class="cls-1" d="M424.05,33a25,25,0,0,1,.17,2.81c0,.9,0,1.74-.07,2.5a5.43,5.43,0,0,1-1.45.14,5.36,5.36,0,0,0-.85-2.88,2.62,2.62,0,0,0-2.13-.81h-2.41V52.48a7.61,7.61,0,0,0,2.64.44v.47a8.56,8.56,0,0,1-.1,1.09h-9.44v-.63a2.79,2.79,0,0,1,.17-.93,4.49,4.49,0,0,0,1.87-.54,1.46,1.46,0,0,0,.56-1.32V34.74h-2.37a2.66,2.66,0,0,0-2.16.81,5.14,5.14,0,0,0-.82,2.88,5.54,5.54,0,0,1-1.48-.14c-.07-.72-.11-1.52-.11-2.4a22.37,22.37,0,0,1,.21-2.91Z" transform="translate(-406.07 -32.98)"/></svg>